<?xml version="1.0" encoding="UTF-8" standalone="no"?>
<!-- Created with Inkscape (http://www.inkscape.org/) -->

<svg
   width="105.74362mm"
   height="105.74287mm"
   viewBox="0 0 105.74362 105.74287"
   version="1.1"
   id="svg1"
   xml:space="preserve"
   inkscape:version="1.3 (0e150ed, 2023-07-21)"
   sodipodi:docname="NYPC.svg"
   xmlns:inkscape="http://www.inkscape.org/namespaces/inkscape"
   xmlns:sodipodi="http://sodipodi.sourceforge.net/DTD/sodipodi-0.dtd"
   xmlns="http://www.w3.org/2000/svg"
   xmlns:svg="http://www.w3.org/2000/svg"><sodipodi:namedview
     id="namedview1"
     pagecolor="#505050"
     bordercolor="#eeeeee"
     borderopacity="1"
     inkscape:showpageshadow="0"
     inkscape:pageopacity="0"
     inkscape:pagecheckerboard="0"
     inkscape:deskcolor="#d1d1d1"
     inkscape:document-units="mm"
     inkscape:zoom="2.027626"
     inkscape:cx="202.9467"
     inkscape:cy="181.49303"
     inkscape:window-width="1728"
     inkscape:window-height="1051"
     inkscape:window-x="0"
     inkscape:window-y="38"
     inkscape:window-maximized="0"
     inkscape:current-layer="layer1" /><defs
     id="defs1" /><g
     inkscape:label="Layer 1"
     inkscape:groupmode="layer"
     id="layer1"
     transform="translate(-52.12819,-87.417336)"><path
       style="fill:#e8a311;fill-opacity:1"
       d="m 99.622291,192.80559 c -1.60073,-0.18049 -3.23784,-0.41755 -3.63802,-0.5268 l -0.7276,-0.19864 v -8.97091 -8.97091 l 14.489589,-14.61447 c 7.96927,-8.03796 15.52609,-15.69004 16.79291,-17.00463 l 2.30332,-2.39016 -16.79291,-16.79135 -16.792909,-16.79136 v -9.195051 c 0,-5.05728 0.0298,-9.202264 0.0662,-9.21108 3.02178,-0.732224 12.251039,-0.969953 16.470309,-0.424246 l 2.38125,0.307983 0.0684,14.680854 0.0684,14.68085 10.38639,-10.38389 10.38639,-10.383901 1.42481,1.070585 c 4.14894,3.117446 8.72226,7.727026 11.10603,11.194056 l 0.87964,1.27939 -10.21473,10.19657 c -5.6181,5.60812 -10.21473,10.30091 -10.21473,10.42843 0,0.12993 6.38215,0.23185 14.51827,0.23185 h 14.51827 l 0.15438,0.99219 c 0.60497,3.88785 0.77359,8.21704 0.46429,11.92033 -0.17862,2.13869 -0.4398,4.33501 -0.58039,4.88071 l -0.25563,0.99219 h -14.4096 c -7.92527,0 -14.40959,0.0899 -14.40959,0.19973 0,0.10985 4.57546,4.77402 10.16768,10.36484 l 10.16769,10.16511 -1.63487,2.12193 c -0.89918,1.16707 -2.76597,3.26763 -4.14842,4.66791 -2.63798,2.67203 -7.03813,6.34715 -7.59931,6.34715 -0.18093,0 -4.83729,-4.52437 -10.34747,-10.05417 -5.51019,-5.52979 -10.09617,-10.05416 -10.19108,-10.05416 -0.0949,0 -0.17256,6.42234 -0.17256,14.27188 0,9.67477 -0.0894,14.32715 -0.27758,14.44344 -0.43953,0.27165 -7.32423,0.90964 -9.512,0.88146 -1.09141,-0.0141 -3.29406,-0.17323 -4.894789,-0.35371 z M 71.300928,180.9904 c -3.358553,-2.72511 -9.743306,-10.04287 -11.181661,-12.81565 -0.256121,-0.49373 0.566741,-1.39741 8.430955,-9.25891 4.793128,-4.79148 8.714778,-8.80175 8.714778,-8.91172 0,-0.10997 -5.471481,-0.19994 -12.158846,-0.19994 H 52.947309 l -0.127822,-0.8599 c -0.0703,-0.47294 -0.254291,-1.71626 -0.408864,-2.76294 -0.531703,-3.60037 -0.283472,-11.09896 0.499748,-15.09643 0.0071,-0.0364 5.489835,-0.0662 12.183794,-0.0662 6.693959,0 12.170497,-0.0893 12.170085,-0.19844 -4.12e-4,-0.10914 -3.97806,-4.17886 -8.839217,-9.04383 l -8.838468,-8.84539 1.346022,-2.00252 c 2.799159,-4.16441 6.954706,-8.7953 10.178941,-11.343276 l 1.106071,-0.87408 20.811322,20.818546 20.811319,20.81854 -20.745959,20.74597 -20.745966,20.74596 z"
       id="path1" /></g></svg>
