<?xml version="1.0" encoding="UTF-8" standalone="no"?>
<!-- Created with Inkscape (http://www.inkscape.org/) -->

<svg
   width="71mm"
   height="66.802002mm"
   viewBox="0 0 141.99886 133.60293"
   version="1.1"
   id="svg1"
   xml:space="preserve"
   inkscape:version="1.3 (0e150ed, 2023-07-21)"
   sodipodi:docname="uh.svg"
   xmlns:inkscape="http://www.inkscape.org/namespaces/inkscape"
   xmlns:sodipodi="http://sodipodi.sourceforge.net/DTD/sodipodi-0.dtd"
   xmlns="http://www.w3.org/2000/svg"
   xmlns:svg="http://www.w3.org/2000/svg"><sodipodi:namedview
     id="namedview1"
     pagecolor="#505050"
     bordercolor="#eeeeee"
     borderopacity="1"
     inkscape:showpageshadow="0"
     inkscape:pageopacity="0"
     inkscape:pagecheckerboard="0"
     inkscape:deskcolor="#d1d1d1"
     inkscape:document-units="mm"
     showguides="false"
     inkscape:zoom="2.597477"
     inkscape:cx="101.82958"
     inkscape:cy="126.46888"
     inkscape:window-width="1728"
     inkscape:window-height="1044"
     inkscape:window-x="0"
     inkscape:window-y="38"
     inkscape:window-maximized="0"
     inkscape:current-layer="layer1" /><defs
     id="defs1" /><g
     inkscape:label="Layer 1"
     inkscape:groupmode="layer"
     id="layer1"
     transform="translate(-62.726585,-73.916191)"><rect
       style="fill:#ffffff;stroke-width:1.99999;fill-opacity:1"
       id="rect1"
       width="141.99886"
       height="133.60294"
       x="62.726585"
       y="73.916191"
       transform="translate(2.2392678e-6)" /><path
       style="fill:#d22030;fill-opacity:1"
       d="m 113.4058,167.59932 v -6.51933 h 1.98966 1.98967 v -5.207 -5.20701 l -3.8735,-0.003 -3.8735,-0.003 -3.78883,-3.26575 -3.78884,-3.26575 v -11.88611 -11.88612 h -1.98966 -1.989669 v -6.51934 -6.51933 h 12.234329 12.23434 v 6.51933 6.51934 h -1.86267 -1.86267 v 4.78366 4.78367 h 6.81567 6.81567 v -4.78367 -4.78366 h -1.86267 -1.86267 v -6.51934 -6.51933 h 12.23434 12.23433 v 6.51933 6.51934 h -1.94733 -1.94733 v 4.78366 4.78367 h 9.48266 9.48267 v 6.51933 6.51934 h -1.98967 -1.98966 v 9.05933 9.05934 h 1.98966 1.98967 v 6.51933 6.51933 h -12.23433 -12.23434 v -6.51933 -6.51933 h 1.86267 1.86267 v -1.22767 -1.22767 h -6.64634 -6.64633 v 1.22767 1.22767 h 1.82033 1.82033 v 6.51933 6.51933 H 125.64013 113.4058 Z m 22.69066,-0.0423 v -4.699 h -1.86266 -1.86267 v -3.00567 -3.00567 h 8.46667 8.46667 v 3.00567 3.00567 h -1.82034 -1.82033 v 4.699 4.699 h 10.414 10.414 v -4.699 -4.699 h -1.98967 -1.98966 v -10.87967 -10.87967 h 1.98966 1.98967 v -4.699 -4.699 h -9.525 -9.525 v -6.604 -6.604 h 1.98967 1.98966 v -4.699 -4.699 h -10.414 -10.414 v 4.699 4.699 h 1.82033 1.82034 v 6.604 6.604 h -8.59367 -8.59367 v -6.604 -6.604 h 1.86267 1.86267 v -4.69933 -4.69934 l -10.43517,0.0215 -10.435166,0.0215 -0.02188,4.67784 -0.02188,4.67783 h 1.990386 1.99038 v 12.39684 12.39684 l 3.2385,2.79711 3.2385,2.7971 4.42384,0.004 4.42383,0.004 v 6.98344 6.98344 l -1.9685,0.0227 -1.9685,0.0227 -0.0219,4.67783 -0.0219,4.67784 h 10.45705 10.45705 z m -19.05,0.0423 v -2.87867 h 1.98967 1.98967 v -12.7 -12.7 h -1.98967 -1.98967 v -2.87867 -2.87866 h 8.636 8.636 v 2.87866 2.87867 h -1.86266 -1.86267 v 4.78401 4.784 l 10.26584,-0.0215 10.26583,-0.0215 0.0219,-4.7625 0.0219,-4.7625 h -1.86337 -1.86337 v -2.87867 -2.87866 h 8.636 8.636 v 2.87866 2.87867 h -1.98967 -1.98966 v 12.7 12.7 h 1.98966 1.98967 v 2.87867 2.87867 h -8.636 -8.636 v -2.87867 -2.87867 h 1.86267 1.86266 v -4.826 -4.826 h -10.287 -10.287 v 4.826 4.826 h 1.86267 1.86266 v 2.87867 2.87867 h -8.636 -8.636 z m -8.7099,-22.83884 -2.63328,-2.26483 -0.001,-12.8905 -0.001,-12.8905 h -1.98967 -1.98966 v -2.87867 -2.87866 h 8.59366 8.59367 v 2.87866 2.87867 h -1.82033 -1.82034 v 12.192 12.192 h 1.98967 1.98967 v 2.96333 2.96334 h -4.13898 -4.13898 z m 24.03457,-0.6985 v -2.96333 h 1.86267 1.86266 v -12.192 -12.192 h -1.86266 -1.86267 v -2.87867 -2.87866 h 8.636 8.636 v 2.87866 2.87867 h -1.98966 -1.98967 l -0.006,12.8905 -0.006,12.8905 -2.5549,2.26105 -2.55489,2.26106 -4.08517,0.004 -4.08517,0.004 z m 13.8629,0.49611 c 1.47919,-1.31042 2.75611,-2.44027 2.8376,-2.51079 0.14066,-0.12173 0.14817,-0.001 0.14817,2.38256 v 2.51079 h -2.83761 -2.8376 z m 26.00504,29.44376 c -1.37538,-0.37062 -1.94826,-2.07247 -1.09442,-3.25115 1.14951,-1.58686 3.73712,-0.785 3.76271,1.166 0.019,1.45253 -1.27197,2.4614 -2.66829,2.08515 z m 1.05322,-0.3973 c 0.49243,-0.13674 0.96439,-0.61097 1.11594,-1.12131 0.58125,-1.95727 -2.19404,-3.06299 -3.05369,-1.21664 -0.61913,1.32976 0.53852,2.72649 1.93775,2.33795 z m -1.29716,-1.6449 v -0.97366 h 0.68118 c 0.97939,0 1.38627,0.45585 0.92749,1.0391 -0.20774,0.26409 -0.20774,0.30399 0,0.56956 0.22732,0.29061 0.2122,0.33883 -0.10583,0.33762 -0.22073,-8.4e-4 -0.31302,-0.0595 -0.46645,-0.29633 -0.26221,-0.40478 -0.52839,-0.40426 -0.52839,0.001 0,0.27281 -0.0202,0.29633 -0.254,0.29633 h -0.254 z m 1.18534,-0.16933 c 0.15688,-0.18904 -0.0403,-0.381 -0.39137,-0.381 -0.2613,0 -0.28597,0.0219 -0.28597,0.254 0,0.29037 0.4688,0.37827 0.67734,0.127 z"
       id="path1" /></g></svg>
