<?xml version="1.0" encoding="UTF-8" standalone="no"?>
<svg
   xmlns:dc="http://purl.org/dc/elements/1.1/"
   xmlns:cc="http://creativecommons.org/ns#"
   xmlns:rdf="http://www.w3.org/1999/02/22-rdf-syntax-ns#"
   xmlns:svg="http://www.w3.org/2000/svg"
   xmlns="http://www.w3.org/2000/svg"
   xmlns:sodipodi="http://sodipodi.sourceforge.net/DTD/sodipodi-0.dtd"
   xmlns:inkscape="http://www.inkscape.org/namespaces/inkscape"
   version="1.1"
   id="svg1447"
   xml:space="preserve"
   width="194.40666"
   height="272.25333"
   viewBox="0 0 194.40666 272.25333"
   sodipodi:docname="glassdoor-logo.svg"
   inkscape:version="1.0.2 (e86c8708, 2021-01-15)"><metadata
     id="metadata1453"><rdf:RDF><cc:Work
         rdf:about=""><dc:format>image/svg+xml</dc:format><dc:type
           rdf:resource="http://purl.org/dc/dcmitype/StillImage" /><dc:title></dc:title></cc:Work></rdf:RDF></metadata><defs
     id="defs1451" /><sodipodi:namedview
     pagecolor="#ff00ff"
     bordercolor="#666666"
     borderopacity="1"
     objecttolerance="10"
     gridtolerance="10"
     guidetolerance="10"
     inkscape:pageopacity="0"
     inkscape:pageshadow="2"
     inkscape:window-width="1433"
     inkscape:window-height="808"
     id="namedview1449"
     showgrid="false"
     inkscape:zoom="0.72337932"
     inkscape:cx="49.436799"
     inkscape:cy="204.10397"
     inkscape:window-x="0"
     inkscape:window-y="25"
     inkscape:window-maximized="0"
     inkscape:current-layer="g1457" /><g
     id="g1455"
     inkscape:groupmode="layer"
     inkscape:label="ink_ext_XXXXXX"
     transform="matrix(1.3333333,0,0,-1.3333333,-194.40666,455.44932)"><g
       id="g1457"
       transform="scale(0.1)"><path
         d="M 2624.18,1665.89 H 1458.05 v 0 c 0,-160.24 130.1,-291.92 291.93,-291.92 h 874.19 v 0 c 160.25,0 291.93,130.09 291.93,291.92 v 0 1197.86 c 0,6.34 -4.76,11.1 -11.1,11.1 h -269.72 c -6.34,0 -11.11,-4.76 -11.11,-11.1 V 1665.89 Z m 0,1749.98 c 160.24,0 291.92,-130.1 291.92,-291.93 v 0 H 1749.98 V 1927.67 c 0,-6.34 -4.76,-11.1 -11.11,-11.1 h -269.71 c -6.35,0 -11.11,4.76 -11.11,11.1 v 1196.27 0 c 0,160.25 130.1,291.93 291.93,291.93 v 0 h 874.2"
         style="fill:#ffffff;fill-opacity:1;fill-rule:nonzero;stroke:none"
         id="path1461" /></g></g></svg>
