<?xml version="1.0" encoding="UTF-8" standalone="no"?>
<svg
   xmlns:dc="http://purl.org/dc/elements/1.1/"
   xmlns:cc="http://creativecommons.org/ns#"
   xmlns:rdf="http://www.w3.org/1999/02/22-rdf-syntax-ns#"
   xmlns:svg="http://www.w3.org/2000/svg"
   xmlns="http://www.w3.org/2000/svg"
   xmlns:sodipodi="http://sodipodi.sourceforge.net/DTD/sodipodi-0.dtd"
   xmlns:inkscape="http://www.inkscape.org/namespaces/inkscape"
   height="505.30304"
   viewBox="-0.118 -0.109 34.233558 65.241648"
   width="339.79257"
   version="1.1"
   id="svg1439"
   sodipodi:docname="indeed-logo.svg"
   inkscape:version="1.0.2 (e86c8708, 2021-01-15)">
  <metadata
     id="metadata1445">
    <rdf:RDF>
      <cc:Work
         rdf:about="">
        <dc:format>image/svg+xml</dc:format>
        <dc:type
           rdf:resource="http://purl.org/dc/dcmitype/StillImage" />
        <dc:title></dc:title>
      </cc:Work>
    </rdf:RDF>
  </metadata>
  <defs
     id="defs1443" />
  <sodipodi:namedview
     pagecolor="#ff00ff"
     bordercolor="#666666"
     borderopacity="1"
     objecttolerance="10"
     gridtolerance="10"
     guidetolerance="10"
     inkscape:pageopacity="0"
     inkscape:pageshadow="2"
     inkscape:window-width="1440"
     inkscape:window-height="836"
     id="namedview1441"
     showgrid="false"
     inkscape:zoom="0.322"
     inkscape:cx="50.277717"
     inkscape:cy="325.59717"
     inkscape:window-x="0"
     inkscape:window-y="25"
     inkscape:window-maximized="0"
     inkscape:current-layer="svg1439" />
  <path
     d="m 23.727769,-0.10135062 c -2.637,0.07 -5.291,0.621 -7.814,1.53000002 -9.7709998,4.078 -16.56599978,12.9759996 -19.6399998,23.6519996 -0.519,2.004 -0.94,4.01 -1.166,6.08 0,0.067 -0.162,2.105 0.129,1.555 0.291,-0.484 0.42,-1.197 0.582,-1.748 1.488,-5.014 3.30200004,-9.577 6.084,-13.912 6.666,-9.8049996 17.3749998,-16.11299966 28.6979998,-12.6179996 2.104,0.71 3.98,1.747 5.856,2.976 0.355,0.259 2.976,2.3299997 2.394,0.453 -0.485,-1.486 -1.714,-2.751 -2.783,-3.754 -3.598,-3.11400006 -7.944,-4.33100002 -12.34,-4.21400002 z m -2.55,12.50499962 c -1.367652,-0.03578 -2.722298,0.273389 -3.939,0.899 -4.044,2.037 -5.663,6.987 -3.592,11.031 2.038,4.045 6.986,5.664 11.031,3.594 4.044,-2.039 5.662,-6.989 3.592,-11.031 -1.354861,-2.690636 -4.080447,-4.417378 -7.092,-4.493 z m 5.54,19.956 c -2.59,1.55 -5.63,2.425 -8.865,2.425 -0.678,0 -1.326,-0.031 -2.006,-0.097 v 23.812 c 0,2.2 0.518,3.85 1.522,4.951 1.035,1.132 2.298,1.682 3.883,1.682 1.616,0 2.945,-0.55 3.945,-1.65 1.005,-1.1 1.521,-2.75 1.521,-4.983 v -26.139 z"
     fill="#2164f3"
     fill-rule="evenodd"
     id="path1437"
     sodipodi:nodetypes="cccccccccccccccccccscscscscc"
     style="fill:#ffffff;fill-opacity:1" />
</svg>
