<?xml version="1.0" encoding="UTF-8" standalone="no"?>
<svg
   xmlns:dc="http://purl.org/dc/elements/1.1/"
   xmlns:cc="http://creativecommons.org/ns#"
   xmlns:rdf="http://www.w3.org/1999/02/22-rdf-syntax-ns#"
   xmlns:svg="http://www.w3.org/2000/svg"
   xmlns="http://www.w3.org/2000/svg"
   xmlns:sodipodi="http://sodipodi.sourceforge.net/DTD/sodipodi-0.dtd"
   xmlns:inkscape="http://www.inkscape.org/namespaces/inkscape"
   id="Linkedin"
   viewBox="0 0 122 122.00092"
   version="1.1"
   sodipodi:docname="linkedin-plain.svg"
   inkscape:version="1.0.2 (e86c8708, 2021-01-15)"
   width="122"
   height="122.00092">
  <metadata
     id="metadata855">
    <rdf:RDF>
      <cc:Work
         rdf:about="">
        <dc:format>image/svg+xml</dc:format>
        <dc:type
           rdf:resource="http://purl.org/dc/dcmitype/StillImage" />
        <dc:title>Artboard 14</dc:title>
      </cc:Work>
    </rdf:RDF>
  </metadata>
  <defs
     id="defs853" />
  <sodipodi:namedview
     pagecolor="#ff00ff"
     bordercolor="#666666"
     borderopacity="1"
     objecttolerance="10"
     gridtolerance="10"
     guidetolerance="10"
     inkscape:pageopacity="0"
     inkscape:pageshadow="2"
     inkscape:window-width="1398"
     inkscape:window-height="814"
     id="namedview851"
     showgrid="false"
     inkscape:zoom="5.3515625"
     inkscape:cx="61"
     inkscape:cy="61.000461"
     inkscape:window-x="0"
     inkscape:window-y="25"
     inkscape:window-maximized="0"
     inkscape:current-layer="Linkedin"
     inkscape:document-rotation="0" />
  <title
     id="title847">Artboard 14</title>
  <path
     id="plain"
     d="M 113,4.613844e-4 H 9 A 8.91,8.91 0 0 0 0,8.8004614 V 113.22046 a 8.91,8.91 0 0 0 9,8.78 h 104 a 8.93,8.93 0 0 0 9,-8.81 V 8.7704614 A 8.93,8.93 0 0 0 113,4.613844e-4 Z M 36.17,104.00046 H 18.06 V 45.730461 h 18.11 z m -9,-66.209999 a 10.5,10.5 0 1 1 10.49,-10.5 10.5,10.5 0 0 1 -10.54,10.48 z M 104,104.00046 H 85.89 V 75.650461 c 0,-6.75 -0.12,-15.44 -9.41,-15.44 -9.29,0 -10.87,7.36 -10.87,15 V 104.00046 H 47.53 V 45.730461 h 17.36 v 8 h 0.24 c 2.42,-4.58 8.32,-9.41 17.13,-9.41 18.34,-0.04 21.74,12.03 21.74,27.68 z"
     style="fill:#ffffff;fill-opacity:1" />
</svg>
