<svg xmlns="http://www.w3.org/2000/svg" viewBox="0 0 122 122.00092" width="100%" height="100%">
    <path
        d="M 113,4.613844e-4 H 9 A 8.91,8.91 0 0 0 0,8.8004614 V 113.22046 a 8.91,8.91 0 0 0 9,8.78 h 104 a 8.93,8.93 0 0 0 9,-8.81 V 8.7704614 A 8.93,8.93 0 0 0 113,4.613844e-4 Z M 36.17,104.00046 H 18.06 V 45.730461 h 18.11 z m -9,-66.209999 a 10.5,10.5 0 1 1 10.49,-10.5 10.5,10.5 0 0 1 -10.54,10.48 z M 104,104.00046 H 85.89 V 75.650461 c 0,-6.75 -0.12,-15.44 -9.41,-15.44 -9.29,0 -10.87,7.36 -10.87,15 V 104.00046 H 47.53 V 45.730461 h 17.36 v 8 h 0.24 c 2.42,-4.58 8.32,-9.41 17.13,-9.41 18.34,-0.04 21.74,12.03 21.74,27.68 z"
    />
</svg>
