<?xml version="1.0" encoding="UTF-8" standalone="no"?>
<svg
   xmlns:dc="http://purl.org/dc/elements/1.1/"
   xmlns:cc="http://creativecommons.org/ns#"
   xmlns:rdf="http://www.w3.org/1999/02/22-rdf-syntax-ns#"
   xmlns:svg="http://www.w3.org/2000/svg"
   xmlns="http://www.w3.org/2000/svg"
   xmlns:sodipodi="http://sodipodi.sourceforge.net/DTD/sodipodi-0.dtd"
   xmlns:inkscape="http://www.inkscape.org/namespaces/inkscape"
   width="16.933332mm"
   height="16.933332mm"
   viewBox="0 0 16.933332 16.933332"
   version="1.1"
   id="svg8"
   inkscape:version="1.0.2 (e86c8708, 2021-01-15)"
   sodipodi:docname="plotly.svg">
  <defs
     id="defs2">
    <path
       id="C"
       d="m 34.909,26.182 c 0,-1.612 1.297,-2.909 2.909,-2.909 1.612,0 2.909,1.297 2.909,2.909 0,1.612 -1.297,2.909 -2.909,2.909 -1.612,0 -2.909,-1.297 -2.909,-2.909 z" />
    <path
       id="C-1"
       d="m 34.909,26.182 c 0,-1.612 1.297,-2.909 2.909,-2.909 1.612,0 2.909,1.297 2.909,2.909 0,1.612 -1.297,2.909 -2.909,2.909 -1.612,0 -2.909,-1.297 -2.909,-2.909 z" />
  </defs>
  <sodipodi:namedview
     id="base"
     pagecolor="#ff00ff"
     bordercolor="#666666"
     borderopacity="1.0"
     inkscape:pageopacity="0"
     inkscape:pageshadow="2"
     inkscape:zoom="7.5478261"
     inkscape:cx="19.546083"
     inkscape:cy="42.040322"
     inkscape:document-units="mm"
     inkscape:current-layer="svg8"
     inkscape:document-rotation="0"
     showgrid="false"
     inkscape:window-width="1920"
     inkscape:window-height="1200"
     inkscape:window-x="1440"
     inkscape:window-y="0"
     inkscape:window-maximized="0" />
  <g
     inkscape:label="Layer 1"
     inkscape:groupmode="layer"
     id="layer1"
     transform="translate(-81.989743,-135.3804)" />
  <path
     id="path1086"
     style="fill:#ffffff;fill-opacity:1;fill-rule:evenodd;stroke:none;stroke-width:0.264583;stroke-linecap:round;stroke-linejoin:round"
     d="M 0.76946206,0 C 0.34321832,0 0,0.34321832 0,0.76946206 V 16.163871 c 0,0.426508 0.34321832,0.769462 0.76946206,0.769462 H 16.163871 c 0.426508,0 0.769462,-0.342954 0.769462,-0.769462 V 0.76946206 C 16.933333,0.34321832 16.590379,0 16.163871,0 Z M 3.8483439,3.0788819 c 0.4265083,0 0.769462,0.3429537 0.769462,0.769462 0,0.4265083 -0.3429537,0.769462 -0.769462,0.769462 -0.4265083,0 -0.769462,-0.3429537 -0.769462,-0.769462 0,-0.4265083 0.3429537,-0.769462 0.769462,-0.769462 z m 3.0788819,0 c 0.426508,0 0.7699787,0.3429537 0.7699787,0.769462 0,0.4265083 -0.3434707,0.769462 -0.7699787,0.769462 -0.4265084,0 -0.7694621,-0.3429537 -0.7694621,-0.769462 0,-0.4265083 0.3429537,-0.769462 0.7694621,-0.769462 z m 3.0788812,0 c 0.426508,0 0.769462,0.3429537 0.769462,0.769462 0,0.4265083 -0.342954,0.769462 -0.769462,0.769462 -0.4265077,0 -0.7699784,-0.3429537 -0.7699784,-0.769462 0,-0.4265083 0.3434707,-0.769462 0.7699784,-0.769462 z m 3.078365,0 c 0.426509,0 0.769979,0.3429537 0.769979,0.769462 0,0.4265083 -0.34347,0.769462 -0.769979,0.769462 -0.426509,0 -0.769462,-0.3429537 -0.769462,-0.769462 0,-0.4265083 0.342953,-0.769462 0.769462,-0.769462 z M 3.8483439,6.1577637 c 0.4265083,0 0.769462,0.3429537 0.769462,0.7694621 0,0.426508 -0.3429537,0.7699787 -0.769462,0.7699787 -0.4265083,0 -0.769462,-0.3434707 -0.769462,-0.7699787 0,-0.4265084 0.3429537,-0.7694621 0.769462,-0.7694621 z m 3.0788819,0 a 0.76993749,0.76993749 0 0 1 0.769462,0.7694621 V 13.084989 A 0.76993749,0.76993749 0 0 1 6.9272258,13.854451 0.76993749,0.76993749 0 0 1 6.1572467,13.084989 V 6.9272258 A 0.76993749,0.76993749 0 0 1 6.9272258,6.1577637 Z m 3.0788812,0 c 0.426508,0 0.769462,0.3429537 0.769462,0.7694621 0,0.426508 -0.342954,0.7699787 -0.769462,0.7699787 -0.4265077,0 -0.7699784,-0.3434707 -0.7699784,-0.7699787 0,-0.4265084 0.3434707,-0.7694621 0.7699784,-0.7694621 z m 3.078365,0 a 0.76993749,0.76993749 0 0 1 0.769979,0.7694621 V 13.084989 A 0.76993749,0.76993749 0 0 1 13.084472,13.854451 0.76993749,0.76993749 0 0 1 12.31501,13.084989 V 6.9272258 A 0.76993749,0.76993749 0 0 1 13.084472,6.1577637 Z M 3.8483439,9.2361286 a 0.76993749,0.76993749 0 0 1 0.769462,0.7699784 v 3.078365 a 0.76993749,0.76993749 0 0 1 -0.769462,0.769979 0.76993749,0.76993749 0 0 1 -0.769462,-0.769979 v -3.078365 a 0.76993749,0.76993749 0 0 1 0.769462,-0.7699784 z m 6.1577631,0 a 0.76993749,0.76993749 0 0 1 0.769462,0.7699784 v 3.078365 A 0.76993749,0.76993749 0 0 1 10.006107,13.854451 0.76993749,0.76993749 0 0 1 9.2361286,13.084472 V 10.006107 A 0.76993749,0.76993749 0 0 1 10.006107,9.2361286 Z" />
  <metadata
     id="metadata1128">
    <rdf:RDF>
      <cc:Work
         rdf:about="">
        <dc:title></dc:title>
      </cc:Work>
    </rdf:RDF>
  </metadata>
</svg>
