<?xml version="1.0" encoding="UTF-8" standalone="no"?>
<svg
   xmlns:dc="http://purl.org/dc/elements/1.1/"
   xmlns:cc="http://creativecommons.org/ns#"
   xmlns:rdf="http://www.w3.org/1999/02/22-rdf-syntax-ns#"
   xmlns:svg="http://www.w3.org/2000/svg"
   xmlns="http://www.w3.org/2000/svg"
   xmlns:sodipodi="http://sodipodi.sourceforge.net/DTD/sodipodi-0.dtd"
   xmlns:inkscape="http://www.inkscape.org/namespaces/inkscape"
   width="48.006725mm"
   height="63.378059mm"
   viewBox="0 0 48.006726 63.37806"
   version="1.1"
   id="svg8"
   inkscape:version="1.0.2 (e86c8708, 2021-01-15)"
   sodipodi:docname="SQL.svg">
  <defs
     id="defs2" />
  <sodipodi:namedview
     id="base"
     pagecolor="#ff00ff"
     bordercolor="#666666"
     borderopacity="1.0"
     inkscape:pageopacity="0"
     inkscape:pageshadow="2"
     inkscape:zoom="1.4353937"
     inkscape:cx="-29.718987"
     inkscape:cy="136.54028"
     inkscape:document-units="mm"
     inkscape:current-layer="layer1"
     inkscape:document-rotation="0"
     showgrid="false"
     inkscape:window-width="1621"
     inkscape:window-height="994"
     inkscape:window-x="1536"
     inkscape:window-y="38"
     inkscape:window-maximized="0" />
  <metadata
     id="metadata5">
    <rdf:RDF>
      <cc:Work
         rdf:about="">
        <dc:format>image/svg+xml</dc:format>
        <dc:type
           rdf:resource="http://purl.org/dc/dcmitype/StillImage" />
        <dc:title></dc:title>
      </cc:Work>
    </rdf:RDF>
  </metadata>
  <g
     inkscape:label="Layer 1"
     inkscape:groupmode="layer"
     id="layer1"
     transform="translate(-105.62491,-132.86071)">
    <path
       style="fill:#ffffff;stroke-width:1;fill-opacity:1"
       d="m 124.16017,196.00672 c -4.77826,-0.43409 -10.7967,-2.11187 -13.75834,-3.83545 -1.78888,-1.04108 -3.90398,-3.20769 -4.38872,-4.49557 -0.5176,-1.37524 -0.5176,-44.96911 0,-46.34435 0.48876,-1.29857 2.60086,-3.45343 4.44446,-4.53443 8.97926,-5.26502 29.31877,-5.24443 38.39704,0.0389 1.78888,1.04108 3.90399,3.20769 4.38872,4.49557 0.51816,1.37672 0.51756,44.96986 -7.1e-4,46.34435 -2.16608,5.74533 -15.49989,9.56495 -29.08253,8.33102 z m 10.23488,-3.43052 c 5.90024,-0.34079 12.81054,-2.64902 15.04624,-5.02586 0.76095,-0.809 0.83337,-1.22677 0.94047,-5.42576 l 0.11604,-4.54928 -2.2772,1.03253 c -4.88498,2.21495 -10.88282,3.26977 -18.59238,3.26977 -7.70956,0 -13.7074,-1.05482 -18.59238,-3.26977 l -2.2772,-1.03253 0.11604,4.54928 c 0.10932,4.2859 0.1671,4.60396 0.99799,5.49391 2.24218,2.40158 9.04132,4.59281 15.69861,5.05935 2.1343,0.14958 4.27743,0.22922 4.7625,0.17698 0.48507,-0.0522 2.31264,-0.17762 4.06127,-0.27862 z m 3.17067,-14.49362 c 4.46902,-0.66873 8.96575,-2.08751 11.06683,-3.49173 l 1.63317,-1.09149 0.0979,-5.02709 c 0.0538,-2.76489 0.009,-5.02708 -0.0999,-5.02708 -0.10879,0 -0.97686,0.39478 -1.92904,0.87729 -8.71283,4.41512 -28.70001,4.41512 -37.41284,0 -0.95218,-0.48251 -1.82024,-0.87729 -1.92904,-0.87729 -0.10879,0 -0.15375,2.26219 -0.0999,5.02708 l 0.0979,5.02709 1.63182,1.09059 c 2.05674,1.37458 6.60047,2.84742 10.7154,3.47337 4.29499,0.65335 11.92979,0.66241 16.22778,0.0193 z m -2.31983,-13.946 c 6.32129,-0.64868 12.52977,-2.61105 14.50271,-4.58399 0.6232,-0.6232 0.69351,-1.19238 0.69351,-5.61444 v -4.92092 l -2.07728,1.03064 c -4.56259,2.26374 -10.5525,3.32752 -18.73661,3.32752 -8.1841,0 -14.17401,-1.06378 -18.73661,-3.32752 l -2.07728,-1.03064 v 4.92092 c 0,5.7018 -0.004,5.69251 3.61052,7.40216 5.33243,2.52184 14.52233,3.64788 22.82104,2.79627 z m 3.02539,-14.61747 c 5.36657,-0.87503 10.02796,-2.63005 11.59537,-4.36568 0.93494,-1.03527 0.52503,-2.91055 -0.89794,-4.1079 -7.64936,-6.43652 -31.03162,-6.43652 -38.68098,0 -1.42296,1.19735 -1.83288,3.07263 -0.89794,4.1079 1.5124,1.67471 6.2866,3.5035 11.39111,4.36344 3.77281,0.63559 13.59829,0.63685 17.49038,0.002 z"
       id="path847" />
  </g>
</svg>
