<?xml version="1.0" encoding="UTF-8"?>
<svg xmlns="http://www.w3.org/2000/svg" width="100%" height="100%" fill="none" stroke-width="1.5" viewBox="0 0 24 24" color="#000000">
    <path stroke="#ffffff" stroke-width="1.5" stroke-linecap="round" stroke-linejoin="round" d="m2.573 8.463 8.659-4.329a.6.6 0 0 1 .536 0l8.659 4.33a.6.6 0 0 1 0 1.073l-8.659 4.329a.6.6 0 0 1-.536 0l-8.659-4.33a.6.6 0 0 1 0-1.073Z"></path>
    <path stroke="#ffffff" stroke-width="1.5" stroke-linecap="round" stroke-linejoin="round" d="M22.5 13V9.5l-2-1M4.5 10.5v5.412a2 2 0 0 0 1.142 1.807l5 2.374a2 2 0 0 0 1.716 0l5-2.374a2 2 0 0 0 1.142-1.807V10.5"></path>
</svg>