<?xml version="1.0" encoding="UTF-8" standalone="no"?>
<!-- Created with Inkscape (http://www.inkscape.org/) -->

<svg
   width="99.067001mm"
   height="39.407001mm"
   viewBox="0 0 141.5243 56.295713"
   version="1.1"
   id="svg1"
   xml:space="preserve"
   sodipodi:docname="felix.svg"
   inkscape:version="1.3 (0e150ed, 2023-07-21)"
   xmlns:inkscape="http://www.inkscape.org/namespaces/inkscape"
   xmlns:sodipodi="http://sodipodi.sourceforge.net/DTD/sodipodi-0.dtd"
   xmlns="http://www.w3.org/2000/svg"
   xmlns:svg="http://www.w3.org/2000/svg"><sodipodi:namedview
     id="namedview1"
     pagecolor="#505050"
     bordercolor="#eeeeee"
     borderopacity="1"
     inkscape:showpageshadow="0"
     inkscape:pageopacity="0"
     inkscape:pagecheckerboard="0"
     inkscape:deskcolor="#d1d1d1"
     inkscape:document-units="mm"
     inkscape:zoom="2.4839909"
     inkscape:cx="70.853723"
     inkscape:cy="87.761998"
     inkscape:window-width="1640"
     inkscape:window-height="983"
     inkscape:window-x="6"
     inkscape:window-y="38"
     inkscape:window-maximized="0"
     inkscape:current-layer="layer1" /><defs
     id="defs1" /><g
     inkscape:groupmode="layer"
     id="layer2"
     inkscape:label="Layer 2"
     sodipodi:insensitive="true"><rect
       style="fill:#ffffff;stroke-width:1.42857"
       id="rect1"
       width="141.52429"
       height="56.295719"
       x="0"
       y="0" /></g><g
     inkscape:label="Layer 1"
     inkscape:groupmode="layer"
     id="layer1"
     transform="translate(-76.535362,-123.09223)"><path
       style="fill:#7f7f7f;fill-opacity:1"
       d="m 116.14017,158.09809 v -11.34533 h 0.0958 0.0958 l 0.32753,0.17529 0.32754,0.17529 v 10.66204 10.66205 h 9.56733 9.56733 v 0.508 0.508 h -9.99066 -9.99067 z m 26.416,7.45663 v -3.88871 l 0.32754,-0.17529 0.32753,-0.17529 h 0.18047 0.18046 v 3.556 3.556 h 7.62 7.62 v 0.508 0.508 h -8.128 -8.128 z m 31.37188,3.32796 -0.37812,-0.21009 3.14595,-5.24491 3.14596,-5.24492 0.0396,-0.0417 0.0396,-0.0417 0.36072,0.38397 0.36072,0.38397 -3.0835,5.11567 -3.08349,5.11567 -0.0847,-0.003 -0.0847,-0.003 z m 6.08613,0.0123 -0.38799,-0.18687 0.0942,-0.24559 0.0943,-0.24559 2.12386,-3.53541 2.12386,-3.53542 h 0.21186 0.21185 l 0.27226,0.21167 0.27227,0.21167 -2.22957,3.76316 -2.22956,3.76316 -0.0847,-0.007 -0.0847,-0.007 z m 13.51133,-3.11394 -1.94734,-3.31953 -0.0506,-0.21304 -0.0506,-0.21304 0.47398,-0.091 0.47397,-0.091 0.0269,0.0274 0.0269,0.0274 1.87812,3.23608 1.87811,3.23607 v 0.18697 0.18697 l -0.32753,0.17529 -0.32754,0.17529 -0.0535,-0.002 -0.0535,-0.002 z m 5.19383,-1.35407 -2.68017,-4.66443 0.29714,-0.32834 0.29714,-0.32834 0.1385,0.0465 0.13849,0.0464 2.70041,4.69625 2.70042,4.69626 -0.36656,0.25674 -0.36656,0.25675 -0.0893,-0.007 -0.0893,-0.007 z M 92.264168,165.3854 v -3.55005 l 0.327534,-0.17529 0.327535,-0.17529 h 0.180465 0.180466 v 3.72533 3.72534 h -0.508 -0.508 z m 5.418667,-1.57386 v -5.1464 l 0.391914,-0.36819 0.391913,-0.36818 h 0.118432 0.118432 l -0.04468,5.461 -0.04468,5.461 -0.465667,0.0536 -0.465666,0.0536 z m 65.701335,-6.0521 v -11.176 h 0.508 0.508 v 11.176 11.176 h -0.508 -0.508 z m 5.41867,0.77324 v -10.42524 l 0.127,0.004 0.127,0.004 0.38236,0.29432 0.38236,0.29432 -0.0437,10.07358 -0.0437,10.07358 -0.46566,0.0536 -0.46567,0.0536 z m -47.58267,-0.60391 v -6.43467 h 1.23832 1.23832 l 0.48669,0.508 0.4867,0.508 h -1.13235 -1.13235 v 5.41675 5.41675 l 6.81567,0.0443 6.81567,0.0442 0.0536,0.46567 0.0536,0.46567 h -7.46192 -7.46191 z m 26.75467,3.33152 v -3.10315 l 0.42333,-0.3977 0.42333,-0.3977 v 2.99029 2.99029 l 4.953,0.0449 4.95301,0.0449 0.0536,0.46567 0.0536,0.46567 h -5.42992 -5.42991 z m 41.23267,-2.90396 -1.016,-1.77049 -0.10852,-0.006 -0.10851,-0.006 -0.90205,1.5237 -0.90205,1.5237 -0.34411,-0.1034 -0.3441,-0.10339 -0.12104,-0.11048 -0.12104,-0.11048 1.41794,-2.42413 1.41794,-2.42413 0.66931,1.15664 0.66931,1.15664 0.93816,1.6356 0.93816,1.6356 -0.36437,0.0978 -0.36437,0.0978 -0.16933,6.8e-4 -0.16933,6.7e-4 z M 92.264168,146.24476 v -13.208 h 8.974662 8.97467 v 0.508 0.508 h -8.46666 -8.466672 v 12.50349 12.50348 l -0.431301,0.19652 -0.431301,0.19651 h -0.0767 -0.0767 z m 50.292002,-0.0847 v -13.12333 h 0.508 0.508 v 12.94804 12.94804 l -0.32753,0.1753 -0.32754,0.17529 h -0.18046 -0.18047 z m 50.2396,8.0529 -2.14893,-3.71419 v -0.0873 -0.0873 l 4.76598,-7.8394 4.76598,-7.8394 0.40308,-0.63861 0.40309,-0.6386 0.3766,0.19587 0.3766,0.19588 0.0482,0.0394 0.0482,0.0394 -4.7721,7.93865 -4.77209,7.93865 -0.16292,0.42334 -0.16291,0.42333 1.16947,2.032 1.16948,2.032 0.70871,1.28556 0.70871,1.28556 -0.38815,0.36465 -0.38815,0.36465 z m -11.50941,2.40256 -0.27643,-0.30545 1.69958,-2.8541 1.69959,-2.8541 -0.072,-0.27357 -0.072,-0.27357 -4.59842,-8.00775 -4.59843,-8.00774 v -0.15663 -0.15663 l 0.35685,-0.19098 0.35685,-0.19098 0.1268,0.14269 0.1268,0.14269 4.62315,8.04333 4.62315,8.04333 0.215,0.33867 0.21501,0.33867 -1.93465,3.21717 -1.93465,3.21717 -0.13985,0.0466 -0.13984,0.0466 z m -83.603525,-2.88844 v -2.23302 h 2.233014 2.233011 l -0.48669,0.508 -0.4867,0.508 h -1.238316 -1.238319 v 1.23832 1.23832 l -0.508,0.4867 -0.508,0.48669 z m 50.292005,-9.5695 v -11.12085 h 0.42333 0.42333 v 10.72315 10.72315 l -0.42333,0.3977 -0.42333,0.3977 z m -43.26043,7.84005 0.49094,-0.51243 2.37708,0.0468 2.37707,0.0468 0.0536,0.46567 0.0536,0.46566 h -2.92159 -2.9216 z m 22.51709,0.004 -0.48669,-0.508 h 4.43435 4.43434 v 0.508 0.508 h -3.94765 -3.94765 z m -29.717999,-9.144 v -4.74133 h 6.434669 6.43467 v 0.508 0.508 h -5.842 -5.842005 v 3.72257 3.72256 l 4.515405,0.0451 4.5154,0.0451 -0.67217,0.46567 -0.67217,0.46567 h -4.4359 -4.435899 z m 24.248539,4.53814 -0.2032,-0.2032 v -4.53814 -4.53813 h 7.28133 7.28133 v 0.50608 0.50608 l -6.81566,0.0443 -6.81567,0.0443 -0.0456,3.683 -0.0456,3.683 h 6.6073 6.6073 v 0.508 0.508 h -6.82413 -6.82413 z m 64.09764,-4.98985 -2.28699,-4.03562 -1.28946,-2.28099 -1.28946,-2.28099 0.43884,-0.22993 0.43884,-0.22993 0.0509,0.0556 0.0509,0.0556 3.00841,5.334 3.00841,5.334 0.1195,0.13734 0.1195,0.13734 3.15734,-5.30201 3.15734,-5.302 0.14665,-0.22915 0.14665,-0.22915 0.40254,0.20975 0.40253,0.20976 0.045,0.0362 0.0451,0.0362 -3.65714,6.16384 -3.65714,6.16385 -0.13566,0.14095 -0.13565,0.14096 z m -16.67584,3.46238 -0.381,-0.18375 v -6.33538 -6.33537 l 0.46567,0.0536 0.46566,0.0536 0.0443,6.477 0.0443,6.477 -0.12901,-0.0115 -0.12901,-0.0115 z m -52.66267,-1.11744 -0.381,-0.0541 v -5.83022 -5.83022 h 9.99067 9.99066 v 0.508 0.508 h -9.56498 -9.56499 l -0.0447,5.37633 -0.0447,5.37634 z m 46.863,-6.04189 v -5.67267 h 0.508 0.508 v 5.67267 5.67266 h -0.508 -0.508 z"
       id="path1" /></g></svg>
