<?xml version="1.0" encoding="UTF-8" standalone="no"?>
<!-- Created with Inkscape (http://www.inkscape.org/) -->

<svg
   width="177.8mm"
   height="107.4928mm"
   viewBox="0 0 177.8 107.4928"
   version="1.1"
   id="svg1"
   xml:space="preserve"
   inkscape:version="1.3 (0e150ed, 2023-07-21)"
   sodipodi:docname="sant.svg"
   xmlns:inkscape="http://www.inkscape.org/namespaces/inkscape"
   xmlns:sodipodi="http://sodipodi.sourceforge.net/DTD/sodipodi-0.dtd"
   xmlns="http://www.w3.org/2000/svg"
   xmlns:svg="http://www.w3.org/2000/svg"><sodipodi:namedview
     id="namedview1"
     pagecolor="#ffffff"
     bordercolor="#eeeeee"
     borderopacity="1"
     inkscape:showpageshadow="0"
     inkscape:pageopacity="0"
     inkscape:pagecheckerboard="0"
     inkscape:deskcolor="#d1d1d1"
     inkscape:document-units="mm"
     inkscape:zoom="0.97555807"
     inkscape:cx="332.1176"
     inkscape:cy="0"
     inkscape:window-width="1728"
     inkscape:window-height="1051"
     inkscape:window-x="0"
     inkscape:window-y="38"
     inkscape:window-maximized="0"
     inkscape:current-layer="layer1" /><defs
     id="defs1" /><g
     inkscape:groupmode="layer"
     id="layer2"
     inkscape:label="Layer 2"
     sodipodi:insensitive="true"><rect
       style="fill:#ffffff;fill-opacity:1;stroke:none;stroke-width:1"
       id="rect1"
       width="177.8"
       height="107.4928"
       x="0"
       y="0" /></g><g
     inkscape:label="Layer 1"
     inkscape:groupmode="layer"
     id="layer1"
     transform="translate(-16.099998,-92.048538)"><path
       style="fill:#000000"
       d="m 119.351,162.79692 c -0.28638,-0.20313 -0.56646,-0.39978 -0.6224,-0.437 -0.10591,-0.0705 -0.17749,-0.12124 -1.3461,-0.95429 -1.20616,-0.85983 -2.84798,-2.07455 -3.45958,-2.55962 l -0.15758,-0.12498 -0.31232,0.23487 c -0.26463,0.19901 -1.16731,0.81581 -1.3679,0.93469 -0.0341,0.0202 -0.19346,0.11581 -0.35412,0.21241 -1.06859,0.6426 -2.67645,1.36085 -3.7592,1.6793 -1.03885,0.30554 -1.46051,0.40858 -2.286,0.55862 -0.56383,0.10248 -1.26466,0.19113 -1.9558,0.2474 -0.56778,0.0462 -2.55227,0.0463 -3.0353,1.2e-4 -0.66964,-0.064 -1.159775,-0.13679 -1.6891,-0.25075 -2.290544,-0.49316 -4.110736,-1.58041 -5.336461,-3.18762 -0.351041,-0.46029 -0.564224,-0.7994 -0.806759,-1.28331 -0.365058,-0.72836 -0.667699,-1.67454 -0.765872,-2.39442 -0.01238,-0.0908 -0.03362,-0.22225 -0.04719,-0.2921 -0.08554,-0.44019 -0.118162,-1.69768 -0.05865,-2.2606 0.163222,-1.54399 0.70175,-2.99181 1.629728,-4.3815 0.286103,-0.42846 0.295371,-0.44144 0.571458,-0.80053 0.758729,-0.98683 1.831636,-2.06423 3.002493,-3.01504 l 0.436641,-0.35459 -0.248706,-0.29617 c -0.508555,-0.60562 -1.138797,-1.45609 -1.555889,-2.09957 -0.451721,-0.69692 -0.66859,-1.07827 -0.996669,-1.7526 -0.182384,-0.37487 -0.253124,-0.53806 -0.434922,-1.0033 -0.04746,-0.12146 -0.206457,-0.58508 -0.222124,-0.6477 -0.007,-0.0279 -0.04199,-0.15939 -0.07777,-0.2921 -0.08096,-0.30028 -0.152701,-0.65807 -0.211359,-1.0541 -0.0641,-0.43277 -0.06396,-1.37843 2.65e-4,-1.8161 0.05663,-0.38592 0.133055,-0.78559 0.179704,-0.9398 0.126921,-0.41956 0.159594,-0.51808 0.235878,-0.7112 0.0469,-0.11875 0.119149,-0.28785 0.160545,-0.37579 0.0414,-0.0879 0.07527,-0.16454 0.07527,-0.17023 0,-0.0246 0.361789,-0.629 0.472454,-0.78927 0.563109,-0.81552 1.442814,-1.63072 2.334065,-2.16291 1.12598,-0.67236 2.28751,-1.05222 3.82288,-1.25024 0.69172,-0.0892 2.40349,-0.0973 3.1028,-0.0146 1.3705,0.16198 2.48569,0.49498 3.3869,1.01135 0.86598,0.49618 1.63564,1.2136 2.14471,1.99912 0.15336,0.23664 0.43027,0.76086 0.49584,0.93868 0.20378,0.5526 0.31028,0.93536 0.37842,1.36002 0.264,1.64541 0.006,3.25808 -0.77025,4.8133 -0.6097,1.22166 -1.36144,2.2286 -2.5516,3.41781 -0.4576,0.45724 -1.07775,1.02133 -1.42432,1.29555 -0.27395,0.21677 -0.4953,0.40363 -0.4953,0.41814 0,0.008 0.18633,0.19737 0.41407,0.42001 0.37707,0.36861 0.5893,0.57369 1.31313,1.26887 0.30875,0.29652 0.95647,0.89894 1.28308,1.19332 0.13949,0.12573 0.25934,0.23547 0.26632,0.24386 0.0508,0.061 1.32947,1.18742 2.03107,1.78917 0.79267,0.67984 2.62172,2.18774 2.73467,2.25449 0.0173,0.0102 0.0786,-0.0608 0.15473,-0.1795 0.50967,-0.79401 1.11457,-1.97894 1.40989,-2.76182 0.0422,-0.11176 0.0988,-0.26035 0.12593,-0.3302 0.0582,-0.14997 0.32711,-0.98038 0.38249,-1.1811 0.0212,-0.0768 0.0635,-0.23686 0.094,-0.3556 0.0305,-0.11875 0.068,-0.26162 0.0832,-0.3175 0.0153,-0.0559 0.0359,-0.14732 0.0458,-0.2032 0.01,-0.0559 0.053,-0.27877 0.0957,-0.4953 0.20983,-1.0632 0.28636,-1.89416 0.29827,-3.2385 l 0.007,-0.8382 h 2.85335 2.85334 l 0.008,0.2667 c 0.0123,0.40759 -0.0648,2.0096 -0.12288,2.5527 -0.0903,0.84476 -0.22713,1.71231 -0.3826,2.4257 -0.0289,0.13271 -0.0625,0.28702 -0.0746,0.3429 -0.1163,0.53651 -0.45064,1.66585 -0.66549,2.2479 -0.0284,0.0768 -0.0673,0.18256 -0.0864,0.23495 -0.0975,0.26607 -0.35204,0.87782 -0.48189,1.15796 -0.0475,0.10253 -0.0864,0.19121 -0.0864,0.19707 0,0.0154 -0.43533,0.88573 -0.52784,1.05526 -0.46345,0.84934 -1.15554,1.9347 -1.55933,2.44541 -0.0543,0.0687 -0.0899,0.13256 -0.079,0.14186 0.0109,0.009 0.22557,0.16935 0.47703,0.35565 0.25146,0.1863 0.58293,0.43206 0.7366,0.54613 0.15367,0.11407 0.51943,0.38266 0.8128,0.59687 0.29337,0.21421 0.59055,0.43145 0.6604,0.48276 0.65246,0.47931 2.02227,1.44223 2.73685,1.9239 0.22003,0.14831 0.39992,0.28181 0.39975,0.29666 -1.6e-4,0.0149 -0.20704,0.26705 -0.45973,0.56042 -0.25269,0.29337 -0.51259,0.59587 -0.57756,0.67222 -0.31197,0.36665 -1.07467,1.25516 -1.23431,1.43791 -0.0986,0.11282 -0.46934,0.5443 -0.82395,0.95885 -0.35462,0.41454 -0.6518,0.7532 -0.6604,0.75257 -0.009,-6.4e-4 -0.24996,-0.16735 -0.53635,-0.37047 z m -15.1511,-5.13803 c 0.93792,-0.10688 1.7701,-0.30678 2.5527,-0.61318 0.0768,-0.0301 0.1853,-0.0715 0.24102,-0.0921 0.25377,-0.0937 0.90814,-0.41528 1.27028,-0.62428 0.46824,-0.27025 1.02891,-0.63538 1.23922,-0.80703 0.011,-0.009 -0.0576,-0.0804 -0.1524,-0.15879 -0.0948,-0.0783 -0.38387,-0.31621 -0.64232,-0.52859 -0.93384,-0.76741 -2.19943,-1.84981 -3.0734,-2.62856 -0.0489,-0.0436 -0.2032,-0.18087 -0.3429,-0.30513 -0.1397,-0.12425 -0.26652,-0.23741 -0.28182,-0.25145 -0.10772,-0.0989 -0.48389,-0.43971 -0.52284,-0.47372 -0.0263,-0.023 -0.18146,-0.16585 -0.34476,-0.3175 -0.29313,-0.27221 -0.48458,-0.45187 -0.98333,-0.92272 -0.14017,-0.13232 -0.68358,-0.66658 -1.20759,-1.18724 l -0.95273,-0.94665 -0.26647,0.2375 c -0.743652,0.66281 -1.457573,1.47262 -1.883938,2.13699 -0.416508,0.649 -0.672922,1.26019 -0.836503,1.9939 -0.05312,0.23827 -0.05935,0.32896 -0.05846,0.8509 9.14e-4,0.53386 0.0068,0.61182 0.06882,0.9048 0.195169,0.9226 0.602601,1.66669 1.291874,2.35934 0.446089,0.44828 1.040877,0.84859 1.532747,1.03158 0.61551,0.22899 1.00607,0.3134 1.8542,0.40074 0.21624,0.0223 1.08704,-0.0119 1.4986,-0.0588 z m -1.87249,-16.93513 c 1.43408,-1.27659 2.26744,-2.44668 2.60798,-3.66173 0.27588,-0.98435 0.15791,-2.14365 -0.28315,-2.78252 -0.40049,-0.58013 -1.01792,-0.88034 -1.96822,-0.95703 -0.78576,-0.0634 -1.44123,0.0773 -1.96392,0.4215 -0.59932,0.39471 -0.961112,0.91176 -1.13652,1.62426 -0.07703,0.31288 -0.08211,1.10838 -0.0091,1.4224 0.239228,1.02867 0.75231,2.00463 1.69063,3.21585 0.32767,0.42297 0.76276,0.93705 0.79307,0.93705 0.0123,0 0.13343,-0.0989 0.26921,-0.21978 z"
       id="path5" /><path
       style="fill:#000000"
       d="m 44.065399,171.371 c -0.902271,-0.0221 -1.875449,-0.066 -2.2225,-0.10029 -0.1397,-0.0138 -0.419735,-0.0361 -0.6223,-0.0496 -0.62321,-0.0414 -2.1878,-0.20197 -2.8575,-0.29324 -0.1397,-0.019 -0.32258,-0.0418 -0.4064,-0.0505 -0.08382,-0.009 -0.25527,-0.0314 -0.381,-0.0504 -0.12573,-0.019 -0.371475,-0.0539 -0.5461,-0.0776 -0.174625,-0.0237 -0.465137,-0.0679 -0.645583,-0.0983 l -0.328082,-0.0553 0.0045,-0.17669 c 0.0025,-0.0972 0.01575,-0.70247 0.02953,-1.34509 0.01377,-0.64262 0.0308,-1.21984 0.03783,-1.2827 0.007,-0.0629 0.02428,-0.6458 0.03832,-1.2954 0.01404,-0.64961 0.03643,-1.49543 0.04976,-1.8796 0.01333,-0.38418 0.03049,-0.97282 0.03814,-1.3081 0.03206,-1.40596 0.0469,-1.7653 0.07287,-1.7653 0.01446,0 0.08991,0.0163 0.167658,0.0362 0.212061,0.0543 0.550933,0.13438 0.750967,0.17741 0.925074,0.199 1.709244,0.35477 2.1844,0.43392 0.1397,0.0233 0.37973,0.0633 0.5334,0.0889 0.476555,0.0795 1.249437,0.18576 1.8415,0.25324 1.306977,0.14895 2.414245,0.21477 3.6322,0.21589 1.049185,9.7e-4 1.554724,-0.0291 2.3495,-0.13975 0.724203,-0.10083 1.387328,-0.26077 1.8923,-0.45641 0.07684,-0.0298 0.179937,-0.0691 0.229115,-0.0873 0.125911,-0.0467 0.54214,-0.25646 0.723385,-0.36455 0.398729,-0.23781 0.8001,-0.58888 1.065864,-0.93228 0.371497,-0.48003 0.573533,-0.93028 0.718042,-1.6002 0.05984,-0.27743 0.06589,-0.35841 0.06728,-0.9017 0.0016,-0.63449 -0.01103,-0.72585 -0.167216,-1.2065 -0.341859,-1.05205 -1.327385,-2.06564 -2.788873,-2.86831 -0.297759,-0.16353 -0.969505,-0.48632 -1.2446,-0.59806 -0.07684,-0.0312 -0.21971,-0.0895 -0.3175,-0.12949 -0.09779,-0.04 -0.47498,-0.19394 -0.8382,-0.34206 -1.252144,-0.51064 -2.194206,-0.903 -3.2639,-1.35939 -0.300355,-0.12815 -0.586105,-0.24968 -0.635,-0.27008 -0.0489,-0.0204 -0.12319,-0.0521 -0.1651,-0.0704 -0.04191,-0.0183 -0.20193,-0.0877 -0.3556,-0.15417 -0.15367,-0.0665 -0.361062,-0.15825 -0.460871,-0.20398 -0.09981,-0.0457 -0.265544,-0.11978 -0.3683,-0.16454 -0.373543,-0.16274 -0.87206,-0.39746 -1.329829,-0.62616 -0.526012,-0.26279 -0.808033,-0.43259 -1.196858,-0.72063 -0.575692,-0.42647 -1.120824,-0.92933 -1.609094,-1.48431 -1.271891,-1.44568 -2.097213,-3.31587 -2.398758,-5.4356 -0.12577,-0.88412 -0.12929,-0.94394 -0.12929,-2.1971 0,-1.25576 0.0021,-1.29128 0.129084,-2.159 0.112038,-0.76574 0.376007,-1.7708 0.647092,-2.4638 0.03006,-0.0768 0.07148,-0.1853 0.09205,-0.24103 0.191941,-0.51992 0.707691,-1.46979 1.144835,-2.10847 1.247205,-1.82221 3.174161,-3.44921 5.416436,-4.57329 1.150492,-0.57676 2.200434,-0.96734 3.683,-1.37011 0.847995,-0.23038 2.196637,-0.47958 3.2893,-0.60779 1.318662,-0.15473 2.196474,-0.20277 3.7211,-0.20363 1.498622,-8.5e-4 2.072479,0.0295 3.8354,0.20312 0.681436,0.0671 2.20426,0.25892 2.8067,0.35354 0.12573,0.0198 0.35433,0.0548 0.508,0.0778 0.355129,0.0533 0.698338,0.11178 0.75565,0.12884 0.03908,0.0116 0.0444,0.0491 0.04399,0.30997 -2.51e-4,0.16321 -0.01172,0.52534 -0.02549,0.80474 -0.01377,0.2794 -0.03597,0.83375 -0.04933,1.2319 -0.01336,0.39814 -0.04171,1.12395 -0.063,1.6129 -0.0348,0.79912 -0.05672,1.34709 -0.141768,3.5433 -0.0138,0.35623 -0.03235,0.77538 -0.04122,0.93145 l -0.01614,0.28375 -0.06624,-0.0253 c -0.03643,-0.0139 -0.111962,-0.0345 -0.167842,-0.0458 -0.05588,-0.0113 -0.2159,-0.0517 -0.3556,-0.0898 -0.1397,-0.0381 -0.294005,-0.0785 -0.3429,-0.0896 -0.0489,-0.0112 -0.163195,-0.0375 -0.254,-0.0585 -0.430508,-0.0995 -0.877286,-0.19526 -1.143,-0.24508 -0.160655,-0.0301 -0.37211,-0.0704 -0.4699,-0.0895 -0.09779,-0.0191 -0.30353,-0.0534 -0.4572,-0.0763 -0.15367,-0.0228 -0.38227,-0.0576 -0.508,-0.0773 -0.12573,-0.0197 -0.280035,-0.0415 -0.3429,-0.0484 -0.06287,-0.007 -0.257175,-0.03 -0.4318,-0.0511 -1.847196,-0.22325 -4.136537,-0.251 -5.399945,-0.0654 -2.378402,0.34931 -3.777607,1.34555 -4.210717,2.99807 -0.154589,0.58983 -0.200928,1.35863 -0.108698,1.8034 0.165591,0.79854 0.520819,1.42288 1.174027,2.06345 0.802249,0.78672 1.917287,1.45532 3.528833,2.11596 0.12573,0.0515 0.360045,0.1488 0.5207,0.21613 0.160655,0.0673 0.446405,0.1866 0.635,0.26506 0.188595,0.0785 0.36576,0.1528 0.3937,0.16522 0.02794,0.0124 0.285115,0.1221 0.5715,0.24375 0.720563,0.30608 1.830786,0.7878 2.0447,0.88719 0.09779,0.0454 0.309245,0.13973 0.4699,0.20954 0.160655,0.0698 0.389255,0.17249 0.508,0.22818 0.118745,0.0557 0.29591,0.13843 0.3937,0.18387 0.584422,0.27156 1.358809,0.65306 1.68052,0.8279 0.09552,0.0519 0.236545,0.12865 0.31338,0.17053 0.477777,0.26037 1.067767,0.70013 1.6764,1.24952 0.573843,0.51799 1.059878,1.06379 1.526925,1.7147 0.206327,0.28755 0.309424,0.45051 0.562416,0.889 0.438599,0.76018 0.873485,1.89705 1.068786,2.794 0.02281,0.10477 0.0587,0.27051 0.07974,0.3683 0.05202,0.2417 0.128233,0.75677 0.182286,1.2319 0.06362,0.55921 0.06408,2.2023 7.81e-4,2.7686 -0.141651,1.26719 -0.347409,2.16796 -0.736857,3.2258 -0.132143,0.35893 -0.169667,0.44536 -0.424551,0.9779 -0.767548,1.60365 -1.951319,3.05182 -3.543157,4.33453 -0.644017,0.51895 -1.34424,0.99418 -2.145373,1.45602 -1.466477,0.8454 -3.151496,1.5024 -5.0927,1.98568 -0.19558,0.0487 -0.407035,0.0987 -0.4699,0.11107 -0.06286,0.0124 -0.222885,0.0463 -0.3556,0.0754 -1.101924,0.2414 -2.873812,0.46974 -4.1402,0.53353 -1.154126,0.0581 -2.074654,0.073 -3.048,0.0491 z"
       id="path4" /><path
       style="fill:#000000"
       d="m 164.5376,171.73868 c -0.0629,-0.005 -0.3429,-0.0269 -0.6223,-0.0489 -0.56059,-0.044 -1.04132,-0.0969 -1.4097,-0.15517 -0.13271,-0.021 -0.28702,-0.0437 -0.3429,-0.0504 -0.45429,-0.055 -1.33102,-0.26167 -2.0066,-0.47315 -0.4455,-0.13945 -0.50634,-0.16209 -0.9906,-0.36874 -2.18203,-0.93115 -3.44716,-2.43885 -4.22525,-5.03536 -0.0691,-0.23051 -0.15018,-0.52197 -0.18024,-0.6477 -0.03,-0.12573 -0.0649,-0.26861 -0.0774,-0.3175 -0.10986,-0.4299 -0.29309,-1.54611 -0.36691,-2.2352 -0.17885,-1.66967 -0.17398,-1.31802 -0.18464,-13.31595 l -0.01,-10.89025 h -3.466 -3.46601 v -4.0894 -4.0894 h 3.4671 3.4671 v -6.24903 -6.24903 l 10.54096,-2.79835 v 7.64812 7.64811 l 5.01015,0.006 5.01015,0.006 v 4.0767 4.0767 l -5.01057,0.006 -5.01057,0.006 0.007,9.58209 c 0.008,10.24014 0.003,9.80526 0.13487,10.81399 0.10429,0.79499 0.19208,1.20622 0.37118,1.73857 0.6108,1.81557 1.89791,2.55345 4.4549,2.55392 1.73153,3.2e-4 3.16741,-0.19166 4.87412,-0.65168 0.0694,-0.0187 0.14087,-0.034 0.15882,-0.034 0.0265,0 0.0314,0.80094 0.0262,4.24498 l -0.006,4.24499 -0.1778,0.0443 c -0.70695,0.17622 -1.81773,0.41139 -2.2733,0.48128 -0.0768,0.0118 -0.35115,0.056 -0.6096,0.0982 -0.63224,0.10332 -0.94591,0.14749 -1.4732,0.20744 -0.24447,0.0278 -0.5453,0.0625 -0.6685,0.077 -0.1232,0.0146 -0.39752,0.0378 -0.6096,0.0515 -0.21208,0.0137 -0.4999,0.0369 -0.6396,0.0516 -0.23575,0.0247 -3.44039,0.0542 -3.6957,0.034 z"
       id="path3" /><path
       style="fill:#810000;fill-opacity:1"
       d="m 116.9126,182.59954 12.56028,-1.32194 c 0,0 0.0619,-47.108 -0.0469,-70.66159 -0.0522,0.0264 -12.51297,-1.3264 -12.51297,-1.3264 v -2.15334 h 19.05 v 77.6224 h -19.05 z"
       id="path2" /><path
       style="fill:#810000;fill-opacity:1"
       d="M 75.485199,107.13614 H 94.5606 v 2.15496 l -12.573,1.33229 v 70.68099 l 12.573,1.30598 v 2.14849 H 75.485199 Z"
       id="path1" /></g></svg>
