<?xml version="1.0" encoding="UTF-8" standalone="no"?>
<svg
   width="414.26187mm"
   height="122.34mm"
   viewBox="0 0 414.26106 122.33975"
   version="1.1"
   id="svg1328"
   inkscape:version="1.3 (0e150ed, 2023-07-21)"
   sodipodi:docname="webneut.svg"
   xmlns:inkscape="http://www.inkscape.org/namespaces/inkscape"
   xmlns:sodipodi="http://sodipodi.sourceforge.net/DTD/sodipodi-0.dtd"
   xmlns="http://www.w3.org/2000/svg"
   xmlns:svg="http://www.w3.org/2000/svg"
   xmlns:rdf="http://www.w3.org/1999/02/22-rdf-syntax-ns#"
   xmlns:cc="http://creativecommons.org/ns#"
   xmlns:dc="http://purl.org/dc/elements/1.1/">
  <defs
     id="defs1322">
    <clipPath
       clipPathUnits="userSpaceOnUse"
       id="clipPath1974">
      <path
         d="M 36,15.84 H 259.2 V 126.72 H 36 Z"
         id="path1972" />
    </clipPath>
    <clipPath
       clipPathUnits="userSpaceOnUse"
       id="clipPath1984">
      <path
         d="M 36,15.84 H 259.2 V 126.72 H 36 Z"
         id="path1982" />
    </clipPath>
    <clipPath
       clipPathUnits="userSpaceOnUse"
       id="clipPath1994">
      <path
         d="M 36,15.84 H 259.2 V 126.72 H 36 Z"
         id="path1992" />
    </clipPath>
  </defs>
  <sodipodi:namedview
     id="base"
     pagecolor="#ff00ff"
     bordercolor="#666666"
     borderopacity="1.0"
     inkscape:pageopacity="0"
     inkscape:pageshadow="2"
     inkscape:zoom="0.66710324"
     inkscape:cx="728.52292"
     inkscape:cy="407.73299"
     inkscape:document-units="mm"
     inkscape:current-layer="layer2"
     inkscape:document-rotation="0"
     showgrid="false"
     inkscape:window-width="1728"
     inkscape:window-height="1051"
     inkscape:window-x="0"
     inkscape:window-y="38"
     inkscape:window-maximized="0"
     inkscape:showpageshadow="0"
     inkscape:pagecheckerboard="0"
     inkscape:deskcolor="#d1d1d1" />
  <metadata
     id="metadata1325">
    <rdf:RDF>
      <cc:Work
         rdf:about="">
        <dc:format>image/svg+xml</dc:format>
        <dc:type
           rdf:resource="http://purl.org/dc/dcmitype/StillImage" />
      </cc:Work>
    </rdf:RDF>
  </metadata>
  <g
     inkscape:label="Layer 1"
     inkscape:groupmode="layer"
     id="layer1"
     transform="translate(-78.619064,-7.1815419)">
    <rect
       style="fill:#000000;fill-opacity:1;stroke-width:0.781472;stroke-linecap:round;stroke-linejoin:round;paint-order:fill markers stroke"
       id="rect833"
       width="414.26187"
       height="122.33971"
       x="78.618652"
       y="7.1815662"
       ry="0" />
  </g>
  <g
     inkscape:groupmode="layer"
     id="layer2"
     inkscape:label="nu">
    <g
       id="g1968"
       style="stroke:#4d4d4d;stroke-width:0.647651;stroke-miterlimit:10;stroke-dasharray:none;stroke-opacity:1"
       transform="matrix(2.0746352,0,0,-1.1491435,-99.311484,145.87071)">
      <g
         id="g1970"
         clip-path="url(#clipPath1974)"
         style="stroke:#4d4d4d;stroke-width:0.647651;stroke-miterlimit:10;stroke-dasharray:none;stroke-opacity:1">
        <path
           d="m 46.145455,20.88 0.405818,0.194173 0.405818,0.545689 0.811636,1.684216 0.608728,1.148746 0.405818,0.426578 0.405818,0.04934 0.405818,-0.339664 0.608727,-1.08248 1.014546,-2.084103 0.405818,-0.438529 0.405818,-0.03015 0.405818,0.407754 0.405819,0.794378 1.623272,3.961821 0.405818,0.306416 0.20291,-0.02888 0.405818,-0.417203 0.405818,-0.825566 1.420364,-3.53103 0.405818,-0.349582 0.202909,0.02877 0.405818,0.483635 0.405818,1.003987 0.811637,2.941148 0.811636,2.63457 0.405818,0.642988 0.202909,0.09078 0.202909,-0.07037 0.405818,-0.604029 0.608728,-1.812606 1.014545,-3.461826 0.405818,-0.755098 0.202909,-0.13575 0.20291,0.04406 0.202909,0.228482 0.405818,0.989142 0.608727,2.53806 1.217455,5.55941 0.405818,0.925104 0.202909,0.171811 0.202909,-0.03324 0.202909,-0.235853 0.405818,-1.026229 0.608728,-2.522467 0.811636,-3.540949 0.405818,-1.086247 0.202909,-0.25347 0.202909,-0.03357 0.202909,0.195239 0.405819,1.06442 0.608727,2.989415 1.217454,7.100622 0.405819,1.368177 0.202909,0.340461 0.202909,0.09157 0.202909,-0.159311 0.405818,-1.026243 0.608727,-2.884267 1.014546,-5.325901 0.405818,-1.142186 0.202909,-0.204577 0.202909,0.06554 0.202909,0.341197 0.405818,1.474018 0.608728,3.774149 1.217454,8.322235 0.405818,1.446828 0.202909,0.304249 0.20291,0.0075 0.202909,-0.286882 0.405818,-1.385921 0.608727,-3.55499 1.014546,-6.153791 0.405818,-1.195143 0.202909,-0.157697 0.202909,0.160074 0.202909,0.479989 0.405818,1.861889 0.608727,4.51188 1.014546,8.256226 0.405818,2.096688 0.405818,0.857707 0.202909,-0.08012 0.202909,-0.415276 0.405819,-1.739757 0.608727,-4.203601 0.811636,-5.881585 0.405818,-1.845784 0.20291,-0.46241 0.202909,-0.113704 0.202909,0.248722 0.405818,1.564614 0.405818,2.807568 1.826182,15.057978 0.202909,0.591545 0.202909,0.212847 0.202909,-0.170864 0.202909,-0.543663 0.405818,-2.085153 0.608728,-4.825014 0.811636,-6.542464 0.405818,-1.977423 0.202909,-0.464916 0.202909,-0.07329 0.20291,0.330371 0.405818,1.836521 0.405818,3.18496 1.623273,15.414809 0.405818,1.554643 0.202909,0.157884 0.202909,-0.264103 0.405818,-1.717069 0.608727,-4.843944 1.014545,-9.103097 0.40582,-2.099825 0.20291,-0.467784 0.20291,-0.03694 0.20291,0.404145 0.40582,2.081636 0.60872,5.672052 1.21746,12.999071 0.40581,2.383992 0.20291,0.553674 0.20291,0.09726 0.20291,-0.359027 0.40582,-1.99273 0.60873,-5.380881 1.01454,-9.854456 0.40582,-2.211742 0.20291,-0.470933 0.20291,-0.0049 0.20291,0.469412 0.40582,2.297789 0.60872,6.129296 1.21746,13.738362 0.40582,2.419098 0.2029,0.520612 0.20291,0.03164 0.20291,-0.454643 0.40582,-2.257789 0.60873,-5.879569 1.01454,-10.534511 0.40582,-2.311686 0.20291,-0.474104 0.20291,0.02263 0.20291,0.525793 0.40582,2.483416 0.60873,6.515738 1.21745,14.323559 0.40582,2.423604 0.20291,0.478793 0.20291,-0.03811 0.20291,-0.549792 0.40581,-2.509204 0.60873,-6.334405 1.01455,-11.135126 0.40582,-2.397956 0.2029,-0.476883 0.20291,0.04592 0.20291,0.573153 0.40582,2.637563 0.60873,6.82893 1.21745,14.751485 0.40582,2.398251 0.20291,0.429007 0.20291,-0.110927 0.20291,-0.643166 0.40582,-2.743756 0.60872,-6.739757 1.01455,-11.648163 0.40582,-2.468685 0.20291,-0.478703 0.20291,0.06524 0.2029,0.611588 0.40582,2.75987 0.60873,7.067545 1.01454,13.140493 0.40582,3.30787 0.20291,0.917264 0.20291,0.372259 0.20291,-0.185587 0.20291,-0.733341 0.40582,-2.958123 0.60872,-7.090056 1.01455,-12.065656 0.40582,-2.521892 0.20291,-0.478881 0.20291,0.08109 0.2029,0.641409 0.40582,2.850527 0.60873,7.231335 1.01455,13.269996 0.40581,3.258869 0.20291,0.869133 0.20291,0.309728 0.20291,-0.260733 0.20291,-0.81881 0.40582,-3.148947 0.60873,-7.379924 1.01454,-12.380001 0.40582,-2.555546 0.20291,-0.476647 0.20291,0.09408 0.20291,0.66311 0.40581,2.910232 0.60873,7.321057 1.01455,13.265395 0.40582,3.175863 0.2029,0.811232 0.20291,0.242743 0.20291,-0.33492 0.20291,-0.898023 0.40582,-3.31292 0.60873,-7.604302 0.81163,-10.594718 0.40582,-3.529837 0.40582,-1.498426 0.20291,0.104943 0.20291,0.677339 0.40582,2.940116 0.60872,7.338384 1.01455,13.130807 0.40582,3.061233 0.20291,0.744903 0.20291,0.172731 0.2029,-0.406648 0.40582,-2.46193 0.60873,-6.912518 1.21745,-15.472335 0.40582,-2.556307 0.20291,-0.46161 0.20291,0.114477 0.20291,0.684855 0.40582,2.941685 0.60873,7.285787 1.01454,12.871759 0.40582,2.917718 0.20291,0.671599 0.20291,0.101177 0.20291,-0.474414 0.40581,-2.578834 0.60873,-7.022147 1.21746,-15.455146 0.40581,-2.519818 0.20291,-0.447148 0.20291,0.123497 0.20291,0.686496 0.40582,2.916724 0.60873,7.166423 1.01454,12.494965 0.40582,2.748334 0.20291,0.592834 0.20291,0.02958 0.20291,-0.536759 0.40582,-2.669403 0.60872,-7.06222 1.01455,-13.348146 0.40582,-3.419804 0.20291,-0.973307 0.20291,-0.427034 0.2029,0.132807 0.20291,0.68313 0.40582,2.867228 0.60873,6.984001 1.01454,12.008103 0.40582,2.556271 0.20291,0.510141 0.20291,-0.0406 0.20291,-0.592312 0.40582,-2.731212 0.60873,-7.029978 1.01454,-13.078645 0.40582,-3.311237 0.20291,-0.933268 0.20291,-0.40062 0.20291,0.143152 0.20291,0.675621 0.40581,2.79531 0.60873,6.742655 1.01455,11.419584 0.40581,2.344806 0.20291,0.425022 0.20291,-0.10799 0.20291,-0.63983 0.40582,-2.762248 0.60873,-6.923563 1.01454,-12.671696 0.40582,-3.165515 0.20291,-0.881423 0.20291,-0.367402 0.20291,0.155185 0.20291,0.664787 0.40582,2.703124 0.60872,6.446808 0.81164,9.055077 0.40582,2.969062 0.20291,0.831407 0.20291,0.338909 0.2029,-0.171318 0.20291,-0.678243 0.40582,-2.760981 0.60873,-6.742117 1.01454,-12.127968 0.40582,-2.982724 0.20291,-0.817615 0.20291,-0.327052 0.20291,0.169433 0.20291,0.651364 0.40582,2.592792 0.60872,6.10106 0.81164,8.435861 0.40582,2.69315 0.20291,0.721237 0.20291,0.253128 0.20291,-0.229486 0.20291,-0.706692 0.40581,-2.726429 0.60873,-6.485859 1.01455,-11.45006 0.40581,-2.763565 0.20291,-0.741936 0.20291,-0.279441 0.20291,0.186268 0.20291,0.635982 0.40582,2.466333 0.60873,5.710072 0.81163,7.753033 0.40582,2.399662 0.20291,0.608161 0.20291,0.168857 0.20291,-0.281581 0.20291,-0.724545 0.40582,-2.658208 0.60872,-6.156151 1.01455,-10.642573 0.40582,-2.509379 0.20291,-0.654739 0.2029,-0.224658 0.20291,0.205883 0.20291,0.619132 0.40582,2.325616 0.81164,7.202849 0.60872,5.089753 0.40582,2.091846 0.20291,0.493473 0.20291,0.08711 0.20291,-0.3269 0.40582,-1.841285 0.60873,-5.118557 1.21745,-11.795804 0.40582,-2.222167 0.20291,-0.556647 0.20291,-0.163029 0.20291,0.228285 0.40581,1.541477 0.60873,4.324953 1.01455,7.944382 0.40581,1.772761 0.20291,0.378316 0.20291,0.0087 0.20291,-0.364969 0.40582,-1.790455 0.60873,-4.747804 1.21745,-10.566384 0.40582,-1.904581 0.20291,-0.448563 0.20291,-0.09511 0.20291,0.253279 0.40582,1.460567 0.60872,3.915085 1.01455,6.923339 0.40582,1.445236 0.20291,0.263674 0.2029,-0.06571 0.20291,-0.395547 0.40582,-1.71462 0.60873,-4.319868 1.01454,-8.030819 0.40582,-2.103645 0.40582,-0.968139 0.20291,-0.02169 0.20291,0.280477 0.40582,1.374986 0.60872,3.481562 0.81164,4.948397 0.40582,1.593498 0.20291,0.427609 0.20291,0.150361 0.20291,-0.135726 0.20291,-0.418625 0.40581,-1.615074 0.60873,-3.83968 1.01455,-6.793749 0.40581,-1.672343 0.40582,-0.677632 0.20291,0.05622 0.20291,0.309307 0.40582,1.284892 0.60873,3.027449 0.81163,4.056179 0.40582,1.198439 0.20291,0.275816 0.20291,0.03903 0.20291,-0.201103 0.40582,-1.085602 0.60872,-2.96199 1.21746,-6.66824 0.40582,-1.217734 0.20291,-0.295888 0.2029,-0.07721 0.20291,0.137427 0.40582,0.858316 0.60873,2.324563 1.01454,4.04073 0.40582,0.798096 0.20291,0.12432 0.20291,-0.06984 0.20291,-0.261788 0.40582,-1.050258 0.60873,-2.527895 1.01454,-4.443787 0.40582,-1.066139 0.40582,-0.404468 0.20291,0.05686 0.40581,0.589327 0.60873,1.755079 1.01455,3.203124 0.40582,0.67342 0.2029,0.124796 0.20291,-0.02612 0.40582,-0.493762 0.40582,-1.000866 1.82618,-5.441512 0.40582,-0.260884 0.20291,0.06858 0.40582,0.49706 0.60872,1.382998 1.01455,2.380482 0.40582,0.441093 0.20291,0.05355 0.40582,-0.237163 0.40581,-0.648502 0.81164,-1.999474 0.60873,-1.40832 0.40582,-0.583997 0.40581,-0.185063 0.40582,0.229336 0.40582,0.582572 1.62327,2.957224 0.40582,0.151489 0.40582,-0.231946 0.40582,-0.5694 0.60872,-1.231731 v 0"
           style="fill:none;stroke:#4d4d4d;stroke-width:0.647651;stroke-linecap:square;stroke-linejoin:round;stroke-miterlimit:10;stroke-dasharray:none;stroke-opacity:1"
           id="path1976" />
      </g>
    </g>
    <g
       id="g1978"
       style="stroke:#808080;stroke-width:0.647651;stroke-miterlimit:10;stroke-dasharray:none;stroke-opacity:1"
       transform="matrix(2.0746352,0,0,-1.1491435,-99.311484,145.87071)">
      <g
         id="g1980"
         clip-path="url(#clipPath1984)"
         style="stroke:#808080;stroke-width:0.647651;stroke-miterlimit:10;stroke-dasharray:none;stroke-opacity:1">
        <path
           d="m 46.145455,121.68 0.202909,-1.01424 0.202909,-3.00136 0.405818,-11.39822 0.608727,-26.656969 1.014546,-45.253675 0.405818,-9.796189 0.202909,-2.085473 0.202909,-0.07193 0.202909,1.943551 0.405818,9.533339 0.608728,24.999672 1.014545,46.549294 0.405818,11.5215 0.202909,3.08901 0.202909,1.1152 0.202909,-0.90365 0.20291,-2.88519 0.405818,-11.16667 0.608727,-26.378082 1.014545,-45.210472 0.405819,-9.965497 0.202909,-2.207281 0.202909,-0.214773 0.202909,1.78354 0.405818,9.180757 0.608727,24.472241 1.014546,46.039007 0.405818,11.53615 0.202909,3.14771 0.202909,1.20596 0.202909,-0.78409 0.202909,-2.74123 0.405819,-10.82822 0.608727,-25.847163 1.014545,-44.734344 0.405818,-10.038355 0.20291,-2.307156 0.202909,-0.35457 0.202909,1.607622 0.405818,8.743081 0.608727,23.715491 1.014546,45.096044 0.405818,11.44282 0.202909,3.17728 0.202909,1.286 0.202909,-0.65634 0.202909,-2.57046 0.405818,-10.38532 0.608728,-25.067925 1.014545,-43.827078 0.405818,-10.012832 0.202909,-2.383518 0.202909,-0.489361 0.20291,1.418095 0.405818,8.225697 0.608727,22.738283 1.217455,50.101929 0.405818,8.05052 0.202909,1.35491 0.202909,-0.52127 0.202909,-2.3742 0.405818,-9.84145 0.608727,-24.046581 1.014546,-42.494786 0.405818,-9.888032 0.202909,-2.435058 0.202909,-0.617282 0.202909,1.21734 0.202909,2.994032 0.405819,10.730962 0.811636,33.111824 0.811636,30.488837 0.405819,7.909894 0.202909,1.4123 0.202909,-0.3799 0.202909,-2.15401 0.405818,-9.201214 0.608727,-22.791793 1.014546,-40.74793 0.405818,-9.664138 0.202909,-2.460774 0.202909,-0.736606 0.202909,1.007768 0.202909,2.701282 0.405818,9.941111 0.608728,22.732876 0.811636,31.570006 0.405818,10.535427 0.405818,4.550665 0.20291,-0.23336 0.202909,-1.91178 0.405818,-8.470233 0.608727,-21.314673 1.014546,-38.601308 0.405818,-9.342436 0.202909,-2.459994 0.202909,-0.845773 0.202909,0.791794 0.202909,2.386017 0.405818,9.06293 0.608728,21.068065 1.014545,35.245825 0.405818,7.415308 0.202909,1.491237 0.202909,-0.08291 0.202909,-1.649672 0.405819,-7.65516 0.608727,-19.628694 1.014545,-36.073964 0.405819,-8.925338 0.202909,-2.432395 0.202909,-0.943414 0.202909,0.57179 0.202909,2.051546 0.405818,8.105335 0.608727,19.212118 1.014546,32.667526 0.405818,7.066459 0.202909,1.512205 0.202909,0.07004 0.202909,-1.370139 0.405818,-6.763624 0.608728,-17.749589 1.014545,-33.189058 0.405818,-8.41637 0.202909,-2.378014 0.20291,-1.028381 0.202909,0.350063 0.202906,1.70125 0.40582,7.077784 0.60873,17.183042 1.01454,29.790602 0.40582,6.654078 0.20291,1.5205 0.20291,0.224017 0.20291,-1.075884 0.40582,-5.80417 0.60872,-15.695221 1.21746,-34.379229 0.40582,-5.711849 0.20291,-1.099757 0.20291,0.128825 0.20291,1.338551 0.40581,5.990178 0.60873,15.000169 1.01455,26.642021 0.40581,6.181822 0.20291,1.515904 0.20291,0.377395 0.20291,-0.769843 0.40582,-4.786178 0.60873,-13.485409 1.21745,-30.451429 0.40582,-5.340369 0.20291,-1.156865 0.20291,-0.08983 0.20291,0.966875 0.40581,4.852769 0.60873,12.683969 1.01455,23.250846 0.40582,5.653733 0.20291,1.498226 0.2029,0.528488 0.20291,-0.455157 0.20291,-1.412992 0.40582,-5.408056 0.60873,-12.650282 1.01454,-21.606795 0.40582,-4.910886 0.20291,-1.199277 0.20291,-0.303956 0.20291,0.589625 0.40582,3.676064 0.60872,10.255877 1.21746,22.514356 0.40582,3.675152 0.20291,0.675543 0.20291,-0.135135 0.2029,-0.932066 0.40582,-4.044039 0.60873,-10.03258 1.01455,-18.010795 0.40581,-4.427909 0.20291,-1.226808 0.20291,-0.511729 0.20291,0.210152 0.20291,0.910084 0.40582,3.697562 0.60873,8.826063 1.01454,15.108113 0.40582,3.404016 0.20291,0.816768 0.20291,0.186795 0.2029,-0.441576 0.40582,-2.639719 0.60873,-7.315046 1.21745,-16.396773 0.40582,-2.970501 0.20291,-0.711494 0.20291,-0.168262 0.20291,0.368757 0.40582,2.221604 0.60873,6.113289 1.21745,13.416029 0.40582,2.315846 0.20291,0.50712 0.20291,0.05337 0.20291,-0.393295 0.40581,-2.015358 0.60873,-5.314788 1.21746,-11.639241 0.40581,-2.139395 0.20291,-0.542422 0.20291,-0.173572 0.20291,0.190964 0.20291,0.537943 0.40582,1.987245 0.60873,4.533169 1.01454,7.738028 0.40582,1.896871 0.40582,0.808252 0.20291,-0.02809 0.20291,-0.308717 0.40581,-1.380974 0.60873,-3.49219 1.21746,-7.797767 0.40581,-1.621456 0.40582,-0.767311 0.20291,-0.04001 0.20291,0.187213 0.40582,1.009805 0.60873,2.778385 1.62327,8.575224 0.40582,0.976107 0.20291,0.185625 0.2029,-0.0269 0.20291,-0.239946 0.40582,-1.089955 0.60873,-2.894129 1.62327,-8.89598 0.40582,-0.880877 0.20291,-0.08159 0.20291,0.172444 0.40582,1.10258 0.40581,2.020021 0.81164,5.776876 0.81164,5.540179 0.40582,1.661136 0.2029,0.410816 0.20291,0.09809 0.20291,-0.22614 0.40582,-1.412595 0.40582,-2.553027 1.01454,-8.905914 0.60873,-4.462242 0.40582,-1.542188 0.20291,-0.208214 0.20291,0.197081 0.20291,0.606369 0.40582,2.378269 0.60872,5.853392 1.21746,12.674815 0.40582,2.103429 0.2029,0.370605 0.20291,-0.120429 0.20291,-0.615986 0.40582,-2.639512 0.60873,-6.697637 1.01454,-12.577375 0.40582,-3.163902 0.20291,-0.843985 0.20291,-0.284999 0.20291,0.298098 0.20291,0.882525 0.40582,3.407565 0.60872,8.235593 1.01455,14.977476 0.40582,3.677451 0.20291,0.963855 0.20291,0.310717 0.2029,-0.363575 0.20291,-1.032239 0.40582,-3.913669 0.60873,-9.26573 1.01454,-16.143306 0.40582,-3.584141 0.20291,-0.76704 0.20291,-0.01581 0.20291,0.749807 0.40582,3.700575 0.60873,9.931116 1.21745,22.360801 0.40582,3.834394 0.20291,0.738577 0.20291,-0.107973 0.20291,-0.958323 0.40581,-4.311449 0.60873,-11.039186 1.01455,-20.404081 0.40581,-4.938306 0.20291,-1.244855 0.20291,-0.332738 0.20291,0.606716 0.20291,1.535677 0.40582,5.628495 0.60873,13.09323 1.01454,22.631273 0.40582,5.096191 0.20291,1.158649 0.20291,0.147952 0.20291,-0.875993 0.40582,-4.669835 0.60872,-12.711321 1.21746,-28.038064 0.40582,-4.410009 0.2029,-0.649989 0.20291,0.454322 0.20291,1.554139 0.40582,6.167163 0.60873,14.942663 1.01454,26.683377 0.40582,6.306897 0.20291,1.566569 0.20291,0.401392 0.20291,-0.786408 0.20291,-1.948596 0.40582,-7.04586 0.60872,-16.096327 1.01455,-26.739186 0.40582,-5.446928 0.20291,-0.96475 0.20291,0.293876 0.2029,1.5541 0.40582,6.639968 0.60873,16.64038 1.01455,30.470271 0.40581,7.454441 0.20291,1.958169 0.20291,0.649641 0.20291,-0.690718 0.20291,-2.008436 0.40582,-7.612542 0.60873,-17.839056 1.01454,-30.313501 0.40582,-6.439349 0.20291,-1.27413 0.20291,0.126811 0.20291,1.535474 0.40581,7.042248 0.60873,18.16995 1.01455,33.955218 0.40582,8.527529 0.2029,2.329517 0.20291,0.890127 0.20291,-0.590044 0.20291,-2.050808 0.40582,-8.110407 0.60873,-19.418796 1.01454,-33.614907 0.40582,-7.377863 0.20291,-1.575175 0.20291,-0.04527 0.20291,1.498463 0.40582,7.370231 0.60872,19.51686 1.21746,42.49952 0.40582,6.798059 0.20291,1.120447 0.2029,-0.485465 0.20291,-2.075428 0.40582,-8.534932 0.60873,-20.820727 1.01454,-36.611896 0.40582,-8.253346 0.20291,-1.864903 0.20291,-0.220586 0.20291,1.443559 0.40582,7.621076 0.60873,20.668663 1.21745,45.768008 0.40582,7.528414 0.20291,1.33839 0.20291,-0.37801 0.20291,-2.08208 0.40581,-8.882104 0.60873,-22.031422 1.01455,-39.275329 0.40581,-9.057056 0.20291,-2.140325 0.20291,-0.397236 0.20291,1.371531 0.40582,7.792896 0.60873,21.615083 1.21745,48.588052 0.40582,8.18375 0.20291,1.54193 0.20291,-0.26861 0.20291,-2.07065 0.40582,-9.148457 0.60872,-23.03899 1.01455,-41.578731 0.40582,-9.78072 0.20291,-2.398483 0.2029,-0.573191 0.20291,1.28342 0.40582,7.884761 0.40582,13.84471 1.62327,64.651301 0.40582,5.2738 0.20291,-0.15819 0.20291,-2.04107 0.40582,-9.33112 0.60872,-23.833205 1.01455,-43.498587 0.40582,-10.416639 0.20291,-2.636488 0.20291,-0.746331 0.20291,1.180512 0.2029,3.065408 0.40582,11.23704 0.60873,25.844017 1.01455,43.398463 0.40581,9.24662 0.20291,1.89895 0.20291,-0.0475 0.20291,-1.99342 0.40582,-9.42787 0.60873,-24.405631 1.01454,-45.014621 0.40582,-10.957781 0.20291,-2.851561 0.20291,-0.914483 0.20291,1.064316 0.20291,3.004082 0.40581,11.279661 0.60873,26.269093 1.01455,44.558845 0.40582,9.64516 0.2029,2.04955 0.20291,0.0626 0.20291,-1.92783 0.40582,-9.43717 0.60873,-24.74975 1.01454,-46.110064 0.40582,-11.39788 0.20291,-3.041072 0.20291,-1.075459 0.20291,0.936535 0.20291,2.912787 0.40582,11.212449 0.60872,26.441151 1.01455,45.291603 0.40582,9.95069 0.20291,2.18001 0.20291,0.17138 0.2029,-1.8446 0.40582,-9.35821 0.60873,-24.861064 1.01455,-46.771897 0.40581,-11.731534 0.20291,-3.202588 0.20291,-1.227084 0.20291,0.799023 0.20291,2.793031 0.40582,11.037287 0.60873,26.360275 0.2029,10.013868 v 0"
           style="fill:none;stroke:#808080;stroke-width:0.647651;stroke-linecap:square;stroke-linejoin:round;stroke-miterlimit:10;stroke-dasharray:none;stroke-opacity:1"
           id="path1986" />
      </g>
    </g>
    <g
       id="g1988"
       style="stroke:#ffffff;stroke-width:0.647651;stroke-miterlimit:10;stroke-dasharray:none;stroke-opacity:1"
       transform="matrix(2.0746352,0,0,-1.1491435,-99.311484,145.87071)">
      <g
         id="g1990"
         clip-path="url(#clipPath1994)"
         style="stroke:#ffffff;stroke-width:0.647651;stroke-miterlimit:10;stroke-dasharray:none;stroke-opacity:1">
        <path
           d="m 46.145455,20.88 0.202909,0.965111 0.202909,2.856314 0.405818,10.852536 0.608727,25.419626 1.014546,43.401283 0.405818,9.55203 0.202909,2.11048 0.202909,0.19539 0.202909,-1.72734 0.405818,-8.86789 0.608728,-23.681518 1.014545,-44.927784 0.405818,-11.491353 0.202909,-3.239476 0.202909,-1.372491 0.202909,0.548532 0.20291,2.445928 0.405818,10.110286 0.608727,24.69557 1.014545,43.681136 0.405819,10.14527 0.202909,2.47359 0.202909,0.58441 0.202909,-1.32762 0.405818,-8.09887 0.608727,-22.822706 1.217455,-51.66448 0.405818,-8.865207 0.202909,-1.766339 0.202909,0.127177 0.202909,2.012678 0.405819,9.272535 0.608727,23.737306 1.014545,43.546238 0.405818,10.642388 0.20291,2.81341 0.202909,0.96819 0.202909,-0.91489 0.202909,-2.7598 0.405818,-10.534121 0.608727,-24.729341 1.014546,-42.36343 0.405818,-9.427799 0.202909,-2.14246 0.202909,-0.294501 0.202909,1.561124 0.405818,8.348102 0.608728,22.555073 1.217454,49.252363 0.405818,7.91288 0.202909,1.34325 0.20291,-0.49292 0.202909,-2.30744 0.405818,-9.610105 0.608727,-23.565337 1.014546,-41.928448 0.405818,-9.897984 0.202909,-2.496861 0.202909,-0.71207 0.202909,1.095976 0.202909,2.854338 0.405818,10.436135 0.608728,23.869439 1.014545,39.745549 0.405818,8.392118 0.202909,1.70617 0.202909,-0.0656 0.202909,-1.83234 0.405819,-8.592822 0.608727,-22.17359 1.014545,-41.086781 0.405819,-10.270552 0.202909,-2.825789 0.202909,-1.12118 0.202909,0.622034 0.202909,2.333573 0.405818,9.335216 0.608727,22.387335 1.014546,38.879768 0.405818,8.792968 0.202909,2.05363 0.202909,0.36328 0.202909,-1.3389 0.405818,-7.491682 0.608728,-20.566801 1.217454,-45.771063 0.405818,-7.741166 0.20291,-1.517611 0.202909,0.144132 0.202909,1.792486 0.405818,8.148935 0.608727,20.696508 1.014546,37.649039 0.405818,9.111795 0.202909,2.382408 0.202909,0.78955 0.202909,-0.83175 0.202909,-2.416298 0.405818,-9.126278 0.608728,-21.297694 1.014545,-36.39635 0.405818,-8.155391 0.202909,-1.89732 0.202909,-0.332921 0.20291,1.23648 0.405818,6.889052 0.608727,18.813608 1.217455,41.346127 0.405818,6.75446 0.202909,1.209236 0.202909,-0.315664 0.202909,-1.82408 0.405818,-7.809237 0.608727,-19.386772 1.014546,-34.944536 0.405818,-8.486999 0.202909,-2.256495 0.202909,-0.804384 0.202909,0.671038 0.202909,2.110694 0.405819,8.114387 0.608727,19.046255 1.014545,32.480594 0.405819,7.181371 0.202909,1.618311 0.202906,0.204396 0.20291,-1.213414 0.40582,-6.415274 0.60873,-17.286162 1.21745,-38.058097 0.40582,-6.414453 0.20291,-1.265646 0.20291,0.101661 0.20291,1.45568 0.40582,6.654028 0.60872,16.92112 1.01455,30.852957 0.40582,7.541467 0.20291,2.012794 0.20291,0.7234 0.2029,-0.590197 0.20291,-1.875676 0.40582,-7.244189 0.60873,-17.110904 1.01454,-29.677797 0.40582,-6.879132 0.20291,-1.712263 0.20291,-0.466185 0.20291,0.789175 0.20291,2.004037 0.40582,7.255039 0.60872,16.477343 1.01455,27.354205 0.40582,5.839767 0.20291,1.236263 0.20291,0.0395 0.2029,-1.15396 0.40582,-5.641734 0.60873,-14.791341 1.21746,-32.01342 0.40581,-5.316868 0.20291,-1.02712 0.20291,0.117492 0.20291,1.248586 0.40582,5.616853 0.60873,14.197963 1.01454,25.882262 0.40582,6.385725 0.20291,1.737908 0.20291,0.669481 0.20291,-0.420444 0.20291,-1.488989 0.40581,-5.892049 0.60873,-14.10472 1.01455,-24.874 0.40582,-5.96647 0.2029,-1.575897 0.20291,-0.553078 0.20291,0.483303 0.20291,1.492714 0.40582,5.712608 0.60873,13.401064 1.01454,23.07621 0.40582,5.293674 0.20291,1.293513 0.20291,0.317649 0.20291,-0.666055 0.40582,-4.124659 0.40581,-7.233919 1.62328,-34.342419 0.40581,-3.323759 0.20291,-0.284697 0.20291,0.651142 0.40582,3.947312 0.60873,11.080303 1.21745,25.305949 0.40582,4.592937 0.20291,1.05301 0.20291,0.163699 0.20291,-0.728149 0.40582,-3.97192 0.60872,-10.848376 1.21746,-24.560926 0.40582,-4.483035 0.2029,-1.048324 0.20291,-0.195187 0.20291,0.660513 0.40582,3.736147 0.60873,10.308454 1.21745,23.445674 0.40582,4.27722 0.20291,0.992062 0.20291,0.170344 0.20291,-0.655401 0.40582,-3.648051 0.60872,-10.051418 1.21746,-23.034175 0.40582,-4.29712 0.20291,-1.038485 0.2029,-0.239371 0.20291,0.56637 0.40582,3.424684 0.40582,5.989822 1.62327,28.728129 0.40582,2.87807 0.20291,0.283958 0.20291,-0.509383 0.20291,-1.282703 0.40582,-4.660857 0.60872,-10.737192 1.01455,-18.605162 0.40582,-4.405597 0.20291,-1.136352 0.20291,-0.358355 0.2029,0.433543 0.20291,1.209376 0.40582,4.536832 0.60873,10.652715 1.01454,18.79973 0.40582,4.56551 0.20291,1.220547 0.20291,0.439981 0.20291,-0.358437 0.20291,-1.144427 0.40582,-4.449263 0.60872,-10.651577 1.01455,-19.087956 0.40582,-4.707389 0.20291,-1.279624 0.20291,-0.485446 0.20291,0.330256 0.2029,1.136487 0.40582,4.501441 0.60873,10.900186 1.01455,19.774156 0.40581,4.966016 0.20291,1.384985 0.20291,0.569313 0.20291,-0.270918 0.20291,-1.103618 0.40582,-4.516774 0.60873,-11.099047 1.01454,-20.267405 0.40582,-5.077792 0.20291,-1.400349 0.20291,-0.552804 0.20291,0.321343 0.20291,1.188567 0.40581,4.785192 0.60873,11.69198 1.01455,21.334762 0.40581,5.364754 0.20291,1.491368 0.20291,0.605126 0.20291,-0.308452 0.20291,-1.214106 0.40582,-4.939009 0.60873,-12.093207 1.01454,-21.916727 0.40582,-5.380817 0.20291,-1.431689 0.20291,-0.498187 0.20291,0.461779 0.20291,1.410964 0.40581,5.442602 0.60873,13.006041 1.01455,23.213944 0.40582,5.623312 0.2029,1.475032 0.20291,0.489481 0.20291,-0.519815 0.20291,-1.513439 0.40582,-5.751613 0.60873,-13.582194 1.01454,-23.74297 0.40582,-5.482631 0.20291,-1.314561 0.20291,-0.2712 0.20291,0.791112 0.40582,4.637103 0.40582,8.094308 1.62327,38.715682 0.40582,3.612491 0.2029,0.179125 0.20291,-0.935977 0.40582,-5.045934 0.60873,-13.79904 1.21745,-30.988526 0.40582,-5.264813 0.20291,-1.003602 0.20291,0.161552 0.20291,1.329327 0.40582,5.942354 0.60872,15.200656 1.01455,28.4884 0.40582,7.295504 0.20291,2.062117 0.20291,0.875784 0.20291,-0.35004 0.2029,-1.566805 0.40582,-6.507231 0.60873,-16.029938 1.01455,-28.834911 0.40581,-6.870354 0.20291,-1.728604 0.20291,-0.471869 0.20291,0.812866 0.20291,2.074506 0.40582,7.591859 0.60873,17.564861 1.01454,30.145776 0.40582,6.784403 0.20291,1.563299 0.20291,0.23856 0.20291,-1.100254 0.40581,-6.007221 0.60873,-16.45603 1.21746,-36.731255 0.40581,-6.108864 0.20291,-1.1032 0.20291,0.286137 0.20291,1.673231 0.40582,7.222912 0.60873,18.153594 1.01454,33.368231 0.40582,8.277361 0.20291,2.234949 0.20291,0.824037 0.20291,-0.623982 0.20291,-2.051184 0.40582,-8.016734 0.60872,-19.123422 1.01455,-33.311573 0.40582,-7.527683 0.20291,-1.726447 0.2029,-0.245851 0.20291,1.253409 0.40582,6.779871 0.60873,18.561839 1.21745,41.703204 0.40582,7.132951 0.20291,1.40069 0.20291,-0.142653 0.20291,-1.683982 0.40582,-7.676176 0.60872,-19.648658 1.01455,-36.220451 0.40582,-8.879127 0.20291,-2.335618 0.20291,-0.777966 0.20291,0.819109 0.2029,2.39145 0.40582,9.087244 0.60873,21.402467 1.01455,37.076841 0.40581,8.407981 0.20291,1.96296 0.20291,0.33908 0.20291,-1.30165 0.40582,-7.264269 0.60873,-19.989795 1.21745,-44.522326 0.40582,-7.344574 0.20291,-1.305006 0.20291,0.374609 0.20291,2.046514 0.40581,8.74343 0.60873,21.805297 1.01455,39.586865 0.40582,9.600485 0.2029,2.50549 0.20291,0.81661 0.20291,-0.90782 0.20291,-2.59834 0.40582,-9.794967 0.60873,-22.8773 1.01454,-38.979387 0.40582,-8.496063 0.20291,-1.821744 0.20291,-0.07564 0.20291,1.679867 0.40582,8.31192 0.60872,21.994241 1.21746,47.774083 0.40582,7.66012 0.20291,1.28544 0.2029,-0.50623 0.20291,-2.27962 0.40582,-9.451586 0.60873,-23.162077 1.01454,-41.13551 0.40582,-9.570121 0.20291,-2.322989 0.20291,-0.527085 0.20291,1.295285 0.40582,7.797377 0.60873,21.96825 1.21745,49.988496 0.40582,8.64896 0.20291,1.74118 0.20291,-0.10059 0.20291,-1.93995 0.40581,-9.01967 0.60873,-23.228757 1.01455,-42.905565 0.40581,-10.555907 0.20291,-2.80364 0.20291,-0.975079 0.20291,0.896767 0.20291,2.73629 0.40582,10.494011 0.60873,24.753234 1.01454,42.670216 0.40582,9.55382 0.20291,2.17965 0.20291,0.30534 0.20291,-1.58242 0.40582,-8.50304 0.60872,-23.076148 1.21746,-50.746241 0.40582,-8.227125 0.2029,-1.414979 0.20291,0.488495 0.20291,2.374762 0.40582,9.961781 0.60873,24.551724 1.01454,43.885681 0.40582,10.36646 0.20291,2.59683 0.20291,0.70789 0.20291,-1.21027 0.20291,-3.08015 0.40582,-11.20367 0.60872,-25.617811 1.01455,-42.775951 0.40582,-9.058547 0.20291,-1.842174 0.20291,0.07478 0.2029,1.989815 0.40582,9.333077 0.60873,24.114138 1.01455,44.680273 0.40581,11.07958 0.20291,2.98895 0.20291,1.10341 0.20291,-0.82684 0.20291,-2.72381 0.40582,-10.62644 0.60873,-25.242958 0.2029,-9.578181 v 0"
           style="fill:none;stroke:#ffffff;stroke-width:0.647651;stroke-linecap:square;stroke-linejoin:round;stroke-miterlimit:10;stroke-dasharray:none;stroke-opacity:1"
           id="path1996" />
      </g>
    </g>
  </g>
</svg>
